<mxfile host="app.diagrams.net" agent="Mozilla/5.0 (Windows NT 10.0; Win64; x64; rv:130.0) Gecko/20100101 Firefox/130.0" version="24.7.14" pages="3">
  <diagram name="Modelo Conceptual" id="j4VkcaoA63qwjdIeacvm">
    <mxGraphModel dx="2759" dy="1735" grid="1" gridSize="10" guides="1" tooltips="1" connect="1" arrows="1" fold="1" page="1" pageScale="1" pageWidth="827" pageHeight="1169" math="0" shadow="0">
      <root>
        <mxCell id="0" />
        <mxCell id="1" parent="0" />
        <mxCell id="HK52org6rpBTpqt10Koc-1" value="Projeto InformÃ¡tico - Smart Lab IoT&lt;b&gt;&lt;br&gt;&lt;/b&gt;&lt;b&gt;&lt;font color=&quot;#ff8000&quot;&gt;&lt;font style=&quot;font-size: 20px;&quot;&gt;MODELO CONCEPTUAL&lt;/font&gt;&lt;/font&gt;&lt;/b&gt;" style="text;html=1;strokeColor=none;fillColor=none;align=center;verticalAlign=middle;whiteSpace=wrap;rounded=0;fontSize=16;" parent="1" vertex="1">
          <mxGeometry x="-1645" y="-1140" width="808" height="30" as="geometry" />
        </mxCell>
        <mxCell id="HK52org6rpBTpqt10Koc-3" value="DISPOSITIVOS" style="shape=table;startSize=30;container=1;collapsible=1;childLayout=tableLayout;fixedRows=1;rowLines=0;fontStyle=1;align=center;resizeLast=1;fillColor=#FF8000;strokeColor=#FF8000;fontSize=16;fontColor=#000000;" parent="1" vertex="1">
          <mxGeometry x="-1328" y="-1080" width="176" height="180.2240339006696" as="geometry">
            <mxRectangle x="520" y="20" width="70" height="30" as="alternateBounds" />
          </mxGeometry>
        </mxCell>
        <mxCell id="HK52org6rpBTpqt10Koc-4" value="" style="shape=partialRectangle;collapsible=0;dropTarget=0;pointerEvents=0;fillColor=none;points=[[0,0.5],[1,0.5]];portConstraint=eastwest;top=0;left=0;right=0;bottom=1;fontSize=16;" parent="HK52org6rpBTpqt10Koc-3" vertex="1">
          <mxGeometry y="30" width="176" height="30" as="geometry" />
        </mxCell>
        <mxCell id="HK52org6rpBTpqt10Koc-5" value="PK" style="shape=partialRectangle;overflow=hidden;connectable=0;fillColor=none;top=0;left=0;bottom=0;right=0;fontStyle=1;fontSize=16;" parent="HK52org6rpBTpqt10Koc-4" vertex="1">
          <mxGeometry width="30" height="30" as="geometry">
            <mxRectangle width="30" height="30" as="alternateBounds" />
          </mxGeometry>
        </mxCell>
        <mxCell id="HK52org6rpBTpqt10Koc-6" value="MacAddress" style="shape=partialRectangle;overflow=hidden;connectable=0;fillColor=none;top=0;left=0;bottom=0;right=0;align=left;spacingLeft=6;fontStyle=5;fontSize=16;" parent="HK52org6rpBTpqt10Koc-4" vertex="1">
          <mxGeometry x="30" width="146" height="30" as="geometry">
            <mxRectangle width="146" height="30" as="alternateBounds" />
          </mxGeometry>
        </mxCell>
        <mxCell id="HK52org6rpBTpqt10Koc-7" value="" style="shape=partialRectangle;collapsible=0;dropTarget=0;pointerEvents=0;fillColor=none;points=[[0,0.5],[1,0.5]];portConstraint=eastwest;top=0;left=0;right=0;bottom=0;fontSize=16;" parent="HK52org6rpBTpqt10Koc-3" vertex="1">
          <mxGeometry y="60" width="176" height="30" as="geometry" />
        </mxCell>
        <mxCell id="HK52org6rpBTpqt10Koc-8" value="" style="shape=partialRectangle;overflow=hidden;connectable=0;fillColor=none;top=0;left=0;bottom=0;right=0;fontSize=16;" parent="HK52org6rpBTpqt10Koc-7" vertex="1">
          <mxGeometry width="30" height="30" as="geometry">
            <mxRectangle width="30" height="30" as="alternateBounds" />
          </mxGeometry>
        </mxCell>
        <mxCell id="HK52org6rpBTpqt10Koc-9" value="Nome" style="shape=partialRectangle;overflow=hidden;connectable=0;fillColor=none;top=0;left=0;bottom=0;right=0;align=left;spacingLeft=6;fontSize=16;" parent="HK52org6rpBTpqt10Koc-7" vertex="1">
          <mxGeometry x="30" width="146" height="30" as="geometry">
            <mxRectangle width="146" height="30" as="alternateBounds" />
          </mxGeometry>
        </mxCell>
        <mxCell id="HK52org6rpBTpqt10Koc-10" value="" style="shape=partialRectangle;collapsible=0;dropTarget=0;pointerEvents=0;fillColor=none;points=[[0,0.5],[1,0.5]];portConstraint=eastwest;top=0;left=0;right=0;bottom=0;fontSize=16;" parent="HK52org6rpBTpqt10Koc-3" vertex="1">
          <mxGeometry y="90" width="176" height="30" as="geometry" />
        </mxCell>
        <mxCell id="HK52org6rpBTpqt10Koc-11" value="" style="shape=partialRectangle;overflow=hidden;connectable=0;fillColor=none;top=0;left=0;bottom=0;right=0;fontSize=16;" parent="HK52org6rpBTpqt10Koc-10" vertex="1">
          <mxGeometry width="30" height="30" as="geometry">
            <mxRectangle width="30" height="30" as="alternateBounds" />
          </mxGeometry>
        </mxCell>
        <mxCell id="HK52org6rpBTpqt10Koc-12" value="Descricao" style="shape=partialRectangle;overflow=hidden;connectable=0;fillColor=none;top=0;left=0;bottom=0;right=0;align=left;spacingLeft=6;fontSize=16;" parent="HK52org6rpBTpqt10Koc-10" vertex="1">
          <mxGeometry x="30" width="146" height="30" as="geometry">
            <mxRectangle width="146" height="30" as="alternateBounds" />
          </mxGeometry>
        </mxCell>
        <mxCell id="ofQb7048WAu071N6cBy4-1" value="" style="shape=partialRectangle;collapsible=0;dropTarget=0;pointerEvents=0;fillColor=none;points=[[0,0.5],[1,0.5]];portConstraint=eastwest;top=0;left=0;right=0;bottom=0;fontSize=16;" parent="HK52org6rpBTpqt10Koc-3" vertex="1">
          <mxGeometry y="120" width="176" height="30" as="geometry" />
        </mxCell>
        <mxCell id="ofQb7048WAu071N6cBy4-2" value="" style="shape=partialRectangle;overflow=hidden;connectable=0;fillColor=none;top=0;left=0;bottom=0;right=0;fontSize=16;" parent="ofQb7048WAu071N6cBy4-1" vertex="1">
          <mxGeometry width="30" height="30" as="geometry">
            <mxRectangle width="30" height="30" as="alternateBounds" />
          </mxGeometry>
        </mxCell>
        <mxCell id="ofQb7048WAu071N6cBy4-3" value="CentralIP" style="shape=partialRectangle;overflow=hidden;connectable=0;fillColor=none;top=0;left=0;bottom=0;right=0;align=left;spacingLeft=6;fontSize=16;" parent="ofQb7048WAu071N6cBy4-1" vertex="1">
          <mxGeometry x="30" width="146" height="30" as="geometry">
            <mxRectangle width="146" height="30" as="alternateBounds" />
          </mxGeometry>
        </mxCell>
        <mxCell id="-M_hnShCiwu3EI5Z5EXr-2" value="" style="shape=partialRectangle;collapsible=0;dropTarget=0;pointerEvents=0;fillColor=none;points=[[0,0.5],[1,0.5]];portConstraint=eastwest;top=0;left=0;right=0;bottom=0;fontSize=16;" parent="HK52org6rpBTpqt10Koc-3" vertex="1">
          <mxGeometry y="150" width="176" height="30" as="geometry" />
        </mxCell>
        <mxCell id="-M_hnShCiwu3EI5Z5EXr-3" value="" style="shape=partialRectangle;overflow=hidden;connectable=0;fillColor=none;top=0;left=0;bottom=0;right=0;fontSize=16;" parent="-M_hnShCiwu3EI5Z5EXr-2" vertex="1">
          <mxGeometry width="30" height="30" as="geometry">
            <mxRectangle width="30" height="30" as="alternateBounds" />
          </mxGeometry>
        </mxCell>
        <mxCell id="-M_hnShCiwu3EI5Z5EXr-4" value="IPAtribuido" style="shape=partialRectangle;overflow=hidden;connectable=0;fillColor=none;top=0;left=0;bottom=0;right=0;align=left;spacingLeft=6;fontSize=16;" parent="-M_hnShCiwu3EI5Z5EXr-2" vertex="1">
          <mxGeometry x="30" width="146" height="30" as="geometry">
            <mxRectangle width="146" height="30" as="alternateBounds" />
          </mxGeometry>
        </mxCell>
        <mxCell id="HK52org6rpBTpqt10Koc-53" value="Transacao" style="shape=table;startSize=30;container=1;collapsible=1;childLayout=tableLayout;fixedRows=1;rowLines=0;fontStyle=1;align=center;resizeLast=1;fillColor=#FF8000;strokeColor=#FF8000;fontSize=16;fontColor=#000000;verticalAlign=top;" parent="1" vertex="1">
          <mxGeometry x="-1550" y="-490" width="203" height="300" as="geometry">
            <mxRectangle x="520" y="20" width="70" height="30" as="alternateBounds" />
          </mxGeometry>
        </mxCell>
        <mxCell id="HK52org6rpBTpqt10Koc-54" value="" style="shape=partialRectangle;collapsible=0;dropTarget=0;pointerEvents=0;fillColor=none;points=[[0,0.5],[1,0.5]];portConstraint=eastwest;top=0;left=0;right=0;bottom=1;fontSize=16;" parent="HK52org6rpBTpqt10Koc-53" vertex="1">
          <mxGeometry y="30" width="203" height="30" as="geometry" />
        </mxCell>
        <mxCell id="HK52org6rpBTpqt10Koc-55" value="PK" style="shape=partialRectangle;overflow=hidden;connectable=0;fillColor=none;top=0;left=0;bottom=0;right=0;fontStyle=1;fontSize=16;" parent="HK52org6rpBTpqt10Koc-54" vertex="1">
          <mxGeometry width="30" height="30" as="geometry">
            <mxRectangle width="30" height="30" as="alternateBounds" />
          </mxGeometry>
        </mxCell>
        <mxCell id="HK52org6rpBTpqt10Koc-56" value="TransacaoID" style="shape=partialRectangle;overflow=hidden;connectable=0;fillColor=none;top=0;left=0;bottom=0;right=0;align=left;spacingLeft=6;fontStyle=5;fontSize=16;" parent="HK52org6rpBTpqt10Koc-54" vertex="1">
          <mxGeometry x="30" width="173" height="30" as="geometry">
            <mxRectangle width="173" height="30" as="alternateBounds" />
          </mxGeometry>
        </mxCell>
        <mxCell id="HK52org6rpBTpqt10Koc-57" value="" style="shape=partialRectangle;collapsible=0;dropTarget=0;pointerEvents=0;fillColor=none;points=[[0,0.5],[1,0.5]];portConstraint=eastwest;top=0;left=0;right=0;bottom=0;fontSize=16;" parent="HK52org6rpBTpqt10Koc-53" vertex="1">
          <mxGeometry y="60" width="203" height="30" as="geometry" />
        </mxCell>
        <mxCell id="HK52org6rpBTpqt10Koc-58" value="FK" style="shape=partialRectangle;overflow=hidden;connectable=0;fillColor=none;top=0;left=0;bottom=0;right=0;fontSize=16;" parent="HK52org6rpBTpqt10Koc-57" vertex="1">
          <mxGeometry width="30" height="30" as="geometry">
            <mxRectangle width="30" height="30" as="alternateBounds" />
          </mxGeometry>
        </mxCell>
        <mxCell id="HK52org6rpBTpqt10Koc-59" value="AccountID" style="shape=partialRectangle;overflow=hidden;connectable=0;fillColor=none;top=0;left=0;bottom=0;right=0;align=left;spacingLeft=6;fontSize=16;" parent="HK52org6rpBTpqt10Koc-57" vertex="1">
          <mxGeometry x="30" width="173" height="30" as="geometry">
            <mxRectangle width="173" height="30" as="alternateBounds" />
          </mxGeometry>
        </mxCell>
        <mxCell id="HK52org6rpBTpqt10Koc-60" value="" style="shape=partialRectangle;collapsible=0;dropTarget=0;pointerEvents=0;fillColor=none;points=[[0,0.5],[1,0.5]];portConstraint=eastwest;top=0;left=0;right=0;bottom=0;fontSize=16;" parent="HK52org6rpBTpqt10Koc-53" vertex="1">
          <mxGeometry y="90" width="203" height="30" as="geometry" />
        </mxCell>
        <mxCell id="HK52org6rpBTpqt10Koc-61" value="" style="shape=partialRectangle;overflow=hidden;connectable=0;fillColor=none;top=0;left=0;bottom=0;right=0;fontSize=16;" parent="HK52org6rpBTpqt10Koc-60" vertex="1">
          <mxGeometry width="30" height="30" as="geometry">
            <mxRectangle width="30" height="30" as="alternateBounds" />
          </mxGeometry>
        </mxCell>
        <mxCell id="HK52org6rpBTpqt10Koc-62" value="Valor" style="shape=partialRectangle;overflow=hidden;connectable=0;fillColor=none;top=0;left=0;bottom=0;right=0;align=left;spacingLeft=6;fontSize=16;" parent="HK52org6rpBTpqt10Koc-60" vertex="1">
          <mxGeometry x="30" width="173" height="30" as="geometry">
            <mxRectangle width="173" height="30" as="alternateBounds" />
          </mxGeometry>
        </mxCell>
        <mxCell id="HK52org6rpBTpqt10Koc-122" value="" style="shape=partialRectangle;collapsible=0;dropTarget=0;pointerEvents=0;fillColor=none;points=[[0,0.5],[1,0.5]];portConstraint=eastwest;top=0;left=0;right=0;bottom=0;fontSize=16;" parent="HK52org6rpBTpqt10Koc-53" vertex="1">
          <mxGeometry y="120" width="203" height="30" as="geometry" />
        </mxCell>
        <mxCell id="HK52org6rpBTpqt10Koc-123" value="" style="shape=partialRectangle;overflow=hidden;connectable=0;fillColor=none;top=0;left=0;bottom=0;right=0;fontSize=16;" parent="HK52org6rpBTpqt10Koc-122" vertex="1">
          <mxGeometry width="30" height="30" as="geometry">
            <mxRectangle width="30" height="30" as="alternateBounds" />
          </mxGeometry>
        </mxCell>
        <mxCell id="HK52org6rpBTpqt10Koc-124" value="Tipo" style="shape=partialRectangle;overflow=hidden;connectable=0;fillColor=none;top=0;left=0;bottom=0;right=0;align=left;spacingLeft=6;fontSize=16;" parent="HK52org6rpBTpqt10Koc-122" vertex="1">
          <mxGeometry x="30" width="173" height="30" as="geometry">
            <mxRectangle width="173" height="30" as="alternateBounds" />
          </mxGeometry>
        </mxCell>
        <mxCell id="5YLsuHS4tt-Qqc3pTLNO-1" value="" style="shape=partialRectangle;collapsible=0;dropTarget=0;pointerEvents=0;fillColor=none;points=[[0,0.5],[1,0.5]];portConstraint=eastwest;top=0;left=0;right=0;bottom=0;fontSize=16;" parent="HK52org6rpBTpqt10Koc-53" vertex="1">
          <mxGeometry y="150" width="203" height="30" as="geometry" />
        </mxCell>
        <mxCell id="5YLsuHS4tt-Qqc3pTLNO-2" value="" style="shape=partialRectangle;overflow=hidden;connectable=0;fillColor=none;top=0;left=0;bottom=0;right=0;fontSize=16;" parent="5YLsuHS4tt-Qqc3pTLNO-1" vertex="1">
          <mxGeometry width="30" height="30" as="geometry">
            <mxRectangle width="30" height="30" as="alternateBounds" />
          </mxGeometry>
        </mxCell>
        <mxCell id="5YLsuHS4tt-Qqc3pTLNO-3" value="Genero" style="shape=partialRectangle;overflow=hidden;connectable=0;fillColor=none;top=0;left=0;bottom=0;right=0;align=left;spacingLeft=6;fontSize=16;" parent="5YLsuHS4tt-Qqc3pTLNO-1" vertex="1">
          <mxGeometry x="30" width="173" height="30" as="geometry">
            <mxRectangle width="173" height="30" as="alternateBounds" />
          </mxGeometry>
        </mxCell>
        <mxCell id="q2hW5hitH_KaRPLEXczi-1" value="" style="shape=partialRectangle;collapsible=0;dropTarget=0;pointerEvents=0;fillColor=none;points=[[0,0.5],[1,0.5]];portConstraint=eastwest;top=0;left=0;right=0;bottom=0;fontSize=16;" parent="HK52org6rpBTpqt10Koc-53" vertex="1">
          <mxGeometry y="180" width="203" height="30" as="geometry" />
        </mxCell>
        <mxCell id="q2hW5hitH_KaRPLEXczi-2" value="" style="shape=partialRectangle;overflow=hidden;connectable=0;fillColor=none;top=0;left=0;bottom=0;right=0;fontSize=16;" parent="q2hW5hitH_KaRPLEXczi-1" vertex="1">
          <mxGeometry width="30" height="30" as="geometry">
            <mxRectangle width="30" height="30" as="alternateBounds" />
          </mxGeometry>
        </mxCell>
        <mxCell id="q2hW5hitH_KaRPLEXczi-3" value="Descricao" style="shape=partialRectangle;overflow=hidden;connectable=0;fillColor=none;top=0;left=0;bottom=0;right=0;align=left;spacingLeft=6;fontSize=16;" parent="q2hW5hitH_KaRPLEXczi-1" vertex="1">
          <mxGeometry x="30" width="173" height="30" as="geometry">
            <mxRectangle width="173" height="30" as="alternateBounds" />
          </mxGeometry>
        </mxCell>
        <mxCell id="q2hW5hitH_KaRPLEXczi-4" value="" style="shape=partialRectangle;collapsible=0;dropTarget=0;pointerEvents=0;fillColor=none;points=[[0,0.5],[1,0.5]];portConstraint=eastwest;top=0;left=0;right=0;bottom=0;fontSize=16;" parent="HK52org6rpBTpqt10Koc-53" vertex="1">
          <mxGeometry y="210" width="203" height="30" as="geometry" />
        </mxCell>
        <mxCell id="q2hW5hitH_KaRPLEXczi-5" value="" style="shape=partialRectangle;overflow=hidden;connectable=0;fillColor=none;top=0;left=0;bottom=0;right=0;fontSize=16;" parent="q2hW5hitH_KaRPLEXczi-4" vertex="1">
          <mxGeometry width="30" height="30" as="geometry">
            <mxRectangle width="30" height="30" as="alternateBounds" />
          </mxGeometry>
        </mxCell>
        <mxCell id="q2hW5hitH_KaRPLEXczi-6" value="Frequencia" style="shape=partialRectangle;overflow=hidden;connectable=0;fillColor=none;top=0;left=0;bottom=0;right=0;align=left;spacingLeft=6;fontSize=16;" parent="q2hW5hitH_KaRPLEXczi-4" vertex="1">
          <mxGeometry x="30" width="173" height="30" as="geometry">
            <mxRectangle width="173" height="30" as="alternateBounds" />
          </mxGeometry>
        </mxCell>
        <mxCell id="q2hW5hitH_KaRPLEXczi-7" value="" style="shape=partialRectangle;collapsible=0;dropTarget=0;pointerEvents=0;fillColor=none;points=[[0,0.5],[1,0.5]];portConstraint=eastwest;top=0;left=0;right=0;bottom=0;fontSize=16;" parent="HK52org6rpBTpqt10Koc-53" vertex="1">
          <mxGeometry y="240" width="203" height="30" as="geometry" />
        </mxCell>
        <mxCell id="q2hW5hitH_KaRPLEXczi-8" value="" style="shape=partialRectangle;overflow=hidden;connectable=0;fillColor=none;top=0;left=0;bottom=0;right=0;fontSize=16;" parent="q2hW5hitH_KaRPLEXczi-7" vertex="1">
          <mxGeometry width="30" height="30" as="geometry">
            <mxRectangle width="30" height="30" as="alternateBounds" />
          </mxGeometry>
        </mxCell>
        <mxCell id="q2hW5hitH_KaRPLEXczi-9" value="DataCriacao" style="shape=partialRectangle;overflow=hidden;connectable=0;fillColor=none;top=0;left=0;bottom=0;right=0;align=left;spacingLeft=6;fontSize=16;" parent="q2hW5hitH_KaRPLEXczi-7" vertex="1">
          <mxGeometry x="30" width="173" height="30" as="geometry">
            <mxRectangle width="173" height="30" as="alternateBounds" />
          </mxGeometry>
        </mxCell>
        <mxCell id="q2hW5hitH_KaRPLEXczi-10" value="" style="shape=partialRectangle;collapsible=0;dropTarget=0;pointerEvents=0;fillColor=none;points=[[0,0.5],[1,0.5]];portConstraint=eastwest;top=0;left=0;right=0;bottom=0;fontSize=16;" parent="HK52org6rpBTpqt10Koc-53" vertex="1">
          <mxGeometry y="270" width="203" height="30" as="geometry" />
        </mxCell>
        <mxCell id="q2hW5hitH_KaRPLEXczi-11" value="" style="shape=partialRectangle;overflow=hidden;connectable=0;fillColor=none;top=0;left=0;bottom=0;right=0;fontSize=16;" parent="q2hW5hitH_KaRPLEXczi-10" vertex="1">
          <mxGeometry width="30" height="30" as="geometry">
            <mxRectangle width="30" height="30" as="alternateBounds" />
          </mxGeometry>
        </mxCell>
        <mxCell id="q2hW5hitH_KaRPLEXczi-12" value="Unidade" style="shape=partialRectangle;overflow=hidden;connectable=0;fillColor=none;top=0;left=0;bottom=0;right=0;align=left;spacingLeft=6;fontSize=16;" parent="q2hW5hitH_KaRPLEXczi-10" vertex="1">
          <mxGeometry x="30" width="173" height="30" as="geometry">
            <mxRectangle width="173" height="30" as="alternateBounds" />
          </mxGeometry>
        </mxCell>
        <mxCell id="HK52org6rpBTpqt10Koc-153" value="" style="endArrow=ERmandOne;startArrow=ERzeroToMany;endFill=0;startFill=0;strokeWidth=2;targetPerimeterSpacing=0;endSize=10;startSize=10;fontSize=20;fontColor=#000000;strokeColor=#000000;entryX=1;entryY=0.5;entryDx=0;entryDy=0;exitX=0.375;exitY=-0.01;exitDx=0;exitDy=0;exitPerimeter=0;" parent="1" source="q2hW5hitH_KaRPLEXczi-17" target="-M_hnShCiwu3EI5Z5EXr-2" edge="1">
          <mxGeometry width="100" height="100" relative="1" as="geometry">
            <mxPoint x="-1273.1437211348139" y="-850" as="sourcePoint" />
            <mxPoint x="-1318.7199999999998" y="-941.88" as="targetPoint" />
          </mxGeometry>
        </mxCell>
        <mxCell id="q2hW5hitH_KaRPLEXczi-17" value="ATUADORES" style="shape=table;startSize=30;container=1;collapsible=1;childLayout=tableLayout;fixedRows=1;rowLines=0;fontStyle=1;align=center;resizeLast=1;fillColor=#FF8000;strokeColor=#FF8000;fontSize=16;fontColor=#000000;verticalAlign=top;" parent="1" vertex="1">
          <mxGeometry x="-1080" y="-840" width="203" height="330" as="geometry">
            <mxRectangle x="520" y="20" width="70" height="30" as="alternateBounds" />
          </mxGeometry>
        </mxCell>
        <mxCell id="q2hW5hitH_KaRPLEXczi-18" value="" style="shape=partialRectangle;collapsible=0;dropTarget=0;pointerEvents=0;fillColor=none;points=[[0,0.5],[1,0.5]];portConstraint=eastwest;top=0;left=0;right=0;bottom=1;fontSize=16;" parent="q2hW5hitH_KaRPLEXczi-17" vertex="1">
          <mxGeometry y="30" width="203" height="30" as="geometry" />
        </mxCell>
        <mxCell id="q2hW5hitH_KaRPLEXczi-19" value="PK" style="shape=partialRectangle;overflow=hidden;connectable=0;fillColor=none;top=0;left=0;bottom=0;right=0;fontStyle=1;fontSize=16;" parent="q2hW5hitH_KaRPLEXczi-18" vertex="1">
          <mxGeometry width="30" height="30" as="geometry">
            <mxRectangle width="30" height="30" as="alternateBounds" />
          </mxGeometry>
        </mxCell>
        <mxCell id="q2hW5hitH_KaRPLEXczi-20" value="ActuatorID" style="shape=partialRectangle;overflow=hidden;connectable=0;fillColor=none;top=0;left=0;bottom=0;right=0;align=left;spacingLeft=6;fontStyle=5;fontSize=16;" parent="q2hW5hitH_KaRPLEXczi-18" vertex="1">
          <mxGeometry x="30" width="173" height="30" as="geometry">
            <mxRectangle width="173" height="30" as="alternateBounds" />
          </mxGeometry>
        </mxCell>
        <mxCell id="q2hW5hitH_KaRPLEXczi-21" value="" style="shape=partialRectangle;collapsible=0;dropTarget=0;pointerEvents=0;fillColor=none;points=[[0,0.5],[1,0.5]];portConstraint=eastwest;top=0;left=0;right=0;bottom=0;fontSize=16;" parent="q2hW5hitH_KaRPLEXczi-17" vertex="1">
          <mxGeometry y="60" width="203" height="30" as="geometry" />
        </mxCell>
        <mxCell id="q2hW5hitH_KaRPLEXczi-22" value="FK" style="shape=partialRectangle;overflow=hidden;connectable=0;fillColor=none;top=0;left=0;bottom=0;right=0;fontSize=16;" parent="q2hW5hitH_KaRPLEXczi-21" vertex="1">
          <mxGeometry width="30" height="30" as="geometry">
            <mxRectangle width="30" height="30" as="alternateBounds" />
          </mxGeometry>
        </mxCell>
        <mxCell id="q2hW5hitH_KaRPLEXczi-23" value="MacAddress" style="shape=partialRectangle;overflow=hidden;connectable=0;fillColor=none;top=0;left=0;bottom=0;right=0;align=left;spacingLeft=6;fontSize=16;" parent="q2hW5hitH_KaRPLEXczi-21" vertex="1">
          <mxGeometry x="30" width="173" height="30" as="geometry">
            <mxRectangle width="173" height="30" as="alternateBounds" />
          </mxGeometry>
        </mxCell>
        <mxCell id="q2hW5hitH_KaRPLEXczi-24" value="" style="shape=partialRectangle;collapsible=0;dropTarget=0;pointerEvents=0;fillColor=none;points=[[0,0.5],[1,0.5]];portConstraint=eastwest;top=0;left=0;right=0;bottom=0;fontSize=16;" parent="q2hW5hitH_KaRPLEXczi-17" vertex="1">
          <mxGeometry y="90" width="203" height="30" as="geometry" />
        </mxCell>
        <mxCell id="q2hW5hitH_KaRPLEXczi-25" value="" style="shape=partialRectangle;overflow=hidden;connectable=0;fillColor=none;top=0;left=0;bottom=0;right=0;fontSize=16;" parent="q2hW5hitH_KaRPLEXczi-24" vertex="1">
          <mxGeometry width="30" height="30" as="geometry">
            <mxRectangle width="30" height="30" as="alternateBounds" />
          </mxGeometry>
        </mxCell>
        <mxCell id="q2hW5hitH_KaRPLEXczi-26" value="Nome" style="shape=partialRectangle;overflow=hidden;connectable=0;fillColor=none;top=0;left=0;bottom=0;right=0;align=left;spacingLeft=6;fontSize=16;" parent="q2hW5hitH_KaRPLEXczi-24" vertex="1">
          <mxGeometry x="30" width="173" height="30" as="geometry">
            <mxRectangle width="173" height="30" as="alternateBounds" />
          </mxGeometry>
        </mxCell>
        <mxCell id="q2hW5hitH_KaRPLEXczi-27" value="" style="shape=partialRectangle;collapsible=0;dropTarget=0;pointerEvents=0;fillColor=none;points=[[0,0.5],[1,0.5]];portConstraint=eastwest;top=0;left=0;right=0;bottom=0;fontSize=16;" parent="q2hW5hitH_KaRPLEXczi-17" vertex="1">
          <mxGeometry y="120" width="203" height="30" as="geometry" />
        </mxCell>
        <mxCell id="q2hW5hitH_KaRPLEXczi-28" value="" style="shape=partialRectangle;overflow=hidden;connectable=0;fillColor=none;top=0;left=0;bottom=0;right=0;fontSize=16;" parent="q2hW5hitH_KaRPLEXczi-27" vertex="1">
          <mxGeometry width="30" height="30" as="geometry">
            <mxRectangle width="30" height="30" as="alternateBounds" />
          </mxGeometry>
        </mxCell>
        <mxCell id="q2hW5hitH_KaRPLEXczi-29" value="Tipo" style="shape=partialRectangle;overflow=hidden;connectable=0;fillColor=none;top=0;left=0;bottom=0;right=0;align=left;spacingLeft=6;fontSize=16;" parent="q2hW5hitH_KaRPLEXczi-27" vertex="1">
          <mxGeometry x="30" width="173" height="30" as="geometry">
            <mxRectangle width="173" height="30" as="alternateBounds" />
          </mxGeometry>
        </mxCell>
        <mxCell id="q2hW5hitH_KaRPLEXczi-30" value="" style="shape=partialRectangle;collapsible=0;dropTarget=0;pointerEvents=0;fillColor=none;points=[[0,0.5],[1,0.5]];portConstraint=eastwest;top=0;left=0;right=0;bottom=0;fontSize=16;" parent="q2hW5hitH_KaRPLEXczi-17" vertex="1">
          <mxGeometry y="150" width="203" height="30" as="geometry" />
        </mxCell>
        <mxCell id="q2hW5hitH_KaRPLEXczi-31" value="" style="shape=partialRectangle;overflow=hidden;connectable=0;fillColor=none;top=0;left=0;bottom=0;right=0;fontSize=16;" parent="q2hW5hitH_KaRPLEXczi-30" vertex="1">
          <mxGeometry width="30" height="30" as="geometry">
            <mxRectangle width="30" height="30" as="alternateBounds" />
          </mxGeometry>
        </mxCell>
        <mxCell id="q2hW5hitH_KaRPLEXczi-32" value="Pin" style="shape=partialRectangle;overflow=hidden;connectable=0;fillColor=none;top=0;left=0;bottom=0;right=0;align=left;spacingLeft=6;fontSize=16;" parent="q2hW5hitH_KaRPLEXczi-30" vertex="1">
          <mxGeometry x="30" width="173" height="30" as="geometry">
            <mxRectangle width="173" height="30" as="alternateBounds" />
          </mxGeometry>
        </mxCell>
        <mxCell id="q2hW5hitH_KaRPLEXczi-33" value="" style="shape=partialRectangle;collapsible=0;dropTarget=0;pointerEvents=0;fillColor=none;points=[[0,0.5],[1,0.5]];portConstraint=eastwest;top=0;left=0;right=0;bottom=0;fontSize=16;" parent="q2hW5hitH_KaRPLEXczi-17" vertex="1">
          <mxGeometry y="180" width="203" height="30" as="geometry" />
        </mxCell>
        <mxCell id="q2hW5hitH_KaRPLEXczi-34" value="" style="shape=partialRectangle;overflow=hidden;connectable=0;fillColor=none;top=0;left=0;bottom=0;right=0;fontSize=16;" parent="q2hW5hitH_KaRPLEXczi-33" vertex="1">
          <mxGeometry width="30" height="30" as="geometry">
            <mxRectangle width="30" height="30" as="alternateBounds" />
          </mxGeometry>
        </mxCell>
        <mxCell id="q2hW5hitH_KaRPLEXczi-35" value="ModoOperacao" style="shape=partialRectangle;overflow=hidden;connectable=0;fillColor=none;top=0;left=0;bottom=0;right=0;align=left;spacingLeft=6;fontSize=16;" parent="q2hW5hitH_KaRPLEXczi-33" vertex="1">
          <mxGeometry x="30" width="173" height="30" as="geometry">
            <mxRectangle width="173" height="30" as="alternateBounds" />
          </mxGeometry>
        </mxCell>
        <mxCell id="q2hW5hitH_KaRPLEXczi-36" value="" style="shape=partialRectangle;collapsible=0;dropTarget=0;pointerEvents=0;fillColor=none;points=[[0,0.5],[1,0.5]];portConstraint=eastwest;top=0;left=0;right=0;bottom=0;fontSize=16;" parent="q2hW5hitH_KaRPLEXczi-17" vertex="1">
          <mxGeometry y="210" width="203" height="30" as="geometry" />
        </mxCell>
        <mxCell id="q2hW5hitH_KaRPLEXczi-37" value="" style="shape=partialRectangle;overflow=hidden;connectable=0;fillColor=none;top=0;left=0;bottom=0;right=0;fontSize=16;" parent="q2hW5hitH_KaRPLEXczi-36" vertex="1">
          <mxGeometry width="30" height="30" as="geometry">
            <mxRectangle width="30" height="30" as="alternateBounds" />
          </mxGeometry>
        </mxCell>
        <mxCell id="q2hW5hitH_KaRPLEXczi-38" value="ValorÂ Â Â Â " style="shape=partialRectangle;overflow=hidden;connectable=0;fillColor=none;top=0;left=0;bottom=0;right=0;align=left;spacingLeft=6;fontSize=16;" parent="q2hW5hitH_KaRPLEXczi-36" vertex="1">
          <mxGeometry x="30" width="173" height="30" as="geometry">
            <mxRectangle width="173" height="30" as="alternateBounds" />
          </mxGeometry>
        </mxCell>
        <mxCell id="q2hW5hitH_KaRPLEXczi-39" value="" style="shape=partialRectangle;collapsible=0;dropTarget=0;pointerEvents=0;fillColor=none;points=[[0,0.5],[1,0.5]];portConstraint=eastwest;top=0;left=0;right=0;bottom=0;fontSize=16;" parent="q2hW5hitH_KaRPLEXczi-17" vertex="1">
          <mxGeometry y="240" width="203" height="30" as="geometry" />
        </mxCell>
        <mxCell id="q2hW5hitH_KaRPLEXczi-40" value="" style="shape=partialRectangle;overflow=hidden;connectable=0;fillColor=none;top=0;left=0;bottom=0;right=0;fontSize=16;" parent="q2hW5hitH_KaRPLEXczi-39" vertex="1">
          <mxGeometry width="30" height="30" as="geometry">
            <mxRectangle width="30" height="30" as="alternateBounds" />
          </mxGeometry>
        </mxCell>
        <mxCell id="q2hW5hitH_KaRPLEXczi-41" value="DataCriacao" style="shape=partialRectangle;overflow=hidden;connectable=0;fillColor=none;top=0;left=0;bottom=0;right=0;align=left;spacingLeft=6;fontSize=16;" parent="q2hW5hitH_KaRPLEXczi-39" vertex="1">
          <mxGeometry x="30" width="173" height="30" as="geometry">
            <mxRectangle width="173" height="30" as="alternateBounds" />
          </mxGeometry>
        </mxCell>
        <mxCell id="q2hW5hitH_KaRPLEXczi-42" value="" style="shape=partialRectangle;collapsible=0;dropTarget=0;pointerEvents=0;fillColor=none;points=[[0,0.5],[1,0.5]];portConstraint=eastwest;top=0;left=0;right=0;bottom=0;fontSize=16;" parent="q2hW5hitH_KaRPLEXczi-17" vertex="1">
          <mxGeometry y="270" width="203" height="30" as="geometry" />
        </mxCell>
        <mxCell id="q2hW5hitH_KaRPLEXczi-43" value="" style="shape=partialRectangle;overflow=hidden;connectable=0;fillColor=none;top=0;left=0;bottom=0;right=0;fontSize=16;" parent="q2hW5hitH_KaRPLEXczi-42" vertex="1">
          <mxGeometry width="30" height="30" as="geometry">
            <mxRectangle width="30" height="30" as="alternateBounds" />
          </mxGeometry>
        </mxCell>
        <mxCell id="q2hW5hitH_KaRPLEXczi-44" value="Unidade" style="shape=partialRectangle;overflow=hidden;connectable=0;fillColor=none;top=0;left=0;bottom=0;right=0;align=left;spacingLeft=6;fontSize=16;" parent="q2hW5hitH_KaRPLEXczi-42" vertex="1">
          <mxGeometry x="30" width="173" height="30" as="geometry">
            <mxRectangle width="173" height="30" as="alternateBounds" />
          </mxGeometry>
        </mxCell>
        <mxCell id="q2hW5hitH_KaRPLEXczi-45" value="" style="shape=partialRectangle;collapsible=0;dropTarget=0;pointerEvents=0;fillColor=none;points=[[0,0.5],[1,0.5]];portConstraint=eastwest;top=0;left=0;right=0;bottom=0;fontSize=16;" parent="q2hW5hitH_KaRPLEXczi-17" vertex="1">
          <mxGeometry y="300" width="203" height="30" as="geometry" />
        </mxCell>
        <mxCell id="q2hW5hitH_KaRPLEXczi-46" value="" style="shape=partialRectangle;overflow=hidden;connectable=0;fillColor=none;top=0;left=0;bottom=0;right=0;fontSize=16;" parent="q2hW5hitH_KaRPLEXczi-45" vertex="1">
          <mxGeometry width="30" height="30" as="geometry">
            <mxRectangle width="30" height="30" as="alternateBounds" />
          </mxGeometry>
        </mxCell>
        <mxCell id="q2hW5hitH_KaRPLEXczi-47" value="isDeleted" style="shape=partialRectangle;overflow=hidden;connectable=0;fillColor=none;top=0;left=0;bottom=0;right=0;align=left;spacingLeft=6;fontSize=16;" parent="q2hW5hitH_KaRPLEXczi-45" vertex="1">
          <mxGeometry x="30" width="173" height="30" as="geometry">
            <mxRectangle width="173" height="30" as="alternateBounds" />
          </mxGeometry>
        </mxCell>
      </root>
    </mxGraphModel>
  </diagram>
  <diagram id="v0VGE9q7yi_u3Cgpxr3H" name="Modelo Conceptual Com Dados">
    <mxGraphModel dx="6451" dy="2514" grid="1" gridSize="10" guides="1" tooltips="1" connect="1" arrows="1" fold="1" page="1" pageScale="1" pageWidth="827" pageHeight="1169" math="0" shadow="0">
      <root>
        <mxCell id="0" />
        <mxCell id="1" parent="0" />
        <mxCell id="gclZs07xCVBIOaA7RyX3-1" value="DISPOSITIVOS" style="shape=table;startSize=30;container=1;collapsible=0;childLayout=tableLayout;strokeColor=default;fontSize=16;fillColor=#A9C4EB;fontStyle=1;fontColor=#FFFFFF;" parent="1" vertex="1">
          <mxGeometry x="-1720" y="-990" width="805" height="240" as="geometry" />
        </mxCell>
        <mxCell id="gclZs07xCVBIOaA7RyX3-2" value="" style="shape=tableRow;horizontal=0;startSize=0;swimlaneHead=0;swimlaneBody=0;strokeColor=inherit;top=0;left=0;bottom=0;right=0;collapsible=0;dropTarget=0;fillColor=none;points=[[0,0.5],[1,0.5]];portConstraint=eastwest;fontSize=16;fontColor=#FFFFFF;" parent="gclZs07xCVBIOaA7RyX3-1" vertex="1">
          <mxGeometry y="30" width="805" height="70" as="geometry" />
        </mxCell>
        <mxCell id="gclZs07xCVBIOaA7RyX3-3" value="&lt;b&gt;MacAddress&lt;/b&gt;" style="shape=partialRectangle;html=1;whiteSpace=wrap;connectable=0;strokeColor=inherit;overflow=hidden;fillColor=#004080;top=0;left=0;bottom=0;right=0;pointerEvents=1;fontSize=16;strokeWidth=0;fontColor=#FFFFFF;" parent="gclZs07xCVBIOaA7RyX3-2" vertex="1">
          <mxGeometry width="179" height="70" as="geometry">
            <mxRectangle width="179" height="70" as="alternateBounds" />
          </mxGeometry>
        </mxCell>
        <mxCell id="gclZs07xCVBIOaA7RyX3-4" value="&lt;b&gt;Nome&lt;/b&gt;" style="shape=partialRectangle;html=1;whiteSpace=wrap;connectable=0;strokeColor=inherit;overflow=hidden;fillColor=#004080;top=0;left=0;bottom=0;right=0;pointerEvents=1;fontSize=16;strokeWidth=0;fontColor=#FFFFFF;" parent="gclZs07xCVBIOaA7RyX3-2" vertex="1">
          <mxGeometry x="179" width="143" height="70" as="geometry">
            <mxRectangle width="143" height="70" as="alternateBounds" />
          </mxGeometry>
        </mxCell>
        <mxCell id="gclZs07xCVBIOaA7RyX3-5" value="&lt;b&gt;Descricao&lt;/b&gt;" style="shape=partialRectangle;html=1;whiteSpace=wrap;connectable=0;strokeColor=inherit;overflow=hidden;fillColor=#004080;top=0;left=0;bottom=0;right=0;pointerEvents=1;fontSize=16;strokeWidth=0;fontColor=#FFFFFF;" parent="gclZs07xCVBIOaA7RyX3-2" vertex="1">
          <mxGeometry x="322" width="161" height="70" as="geometry">
            <mxRectangle width="161" height="70" as="alternateBounds" />
          </mxGeometry>
        </mxCell>
        <mxCell id="r6usoJKrATchnA_4UxM2-13" value="&lt;b&gt;CentralIP&lt;/b&gt;" style="shape=partialRectangle;html=1;whiteSpace=wrap;connectable=0;strokeColor=inherit;overflow=hidden;fillColor=#004080;top=0;left=0;bottom=0;right=0;pointerEvents=1;fontSize=16;strokeWidth=0;fontColor=#FFFFFF;" vertex="1" parent="gclZs07xCVBIOaA7RyX3-2">
          <mxGeometry x="483" width="161" height="70" as="geometry">
            <mxRectangle width="161" height="70" as="alternateBounds" />
          </mxGeometry>
        </mxCell>
        <mxCell id="r6usoJKrATchnA_4UxM2-16" value="&lt;b&gt;IPAtribuido&lt;/b&gt;" style="shape=partialRectangle;html=1;whiteSpace=wrap;connectable=0;strokeColor=inherit;overflow=hidden;fillColor=#004080;top=0;left=0;bottom=0;right=0;pointerEvents=1;fontSize=16;strokeWidth=0;fontColor=#FFFFFF;" vertex="1" parent="gclZs07xCVBIOaA7RyX3-2">
          <mxGeometry x="644" width="161" height="70" as="geometry">
            <mxRectangle width="161" height="70" as="alternateBounds" />
          </mxGeometry>
        </mxCell>
        <mxCell id="gclZs07xCVBIOaA7RyX3-6" value="" style="shape=tableRow;horizontal=0;startSize=0;swimlaneHead=0;swimlaneBody=0;strokeColor=inherit;top=0;left=0;bottom=0;right=0;collapsible=0;dropTarget=0;fillColor=none;points=[[0,0.5],[1,0.5]];portConstraint=eastwest;fontSize=16;" parent="gclZs07xCVBIOaA7RyX3-1" vertex="1">
          <mxGeometry y="100" width="805" height="70" as="geometry" />
        </mxCell>
        <mxCell id="gclZs07xCVBIOaA7RyX3-7" value="84:0D:8E:AB:E3:CC" style="shape=partialRectangle;html=1;whiteSpace=wrap;connectable=0;strokeColor=inherit;overflow=hidden;fillColor=none;top=0;left=0;bottom=0;right=0;pointerEvents=1;fontSize=17;" parent="gclZs07xCVBIOaA7RyX3-6" vertex="1">
          <mxGeometry width="179" height="70" as="geometry">
            <mxRectangle width="179" height="70" as="alternateBounds" />
          </mxGeometry>
        </mxCell>
        <mxCell id="gclZs07xCVBIOaA7RyX3-8" value="ESP Do Quarto" style="shape=partialRectangle;html=1;whiteSpace=wrap;connectable=0;strokeColor=inherit;overflow=hidden;fillColor=none;top=0;left=0;bottom=0;right=0;pointerEvents=1;fontSize=17;" parent="gclZs07xCVBIOaA7RyX3-6" vertex="1">
          <mxGeometry x="179" width="143" height="70" as="geometry">
            <mxRectangle width="143" height="70" as="alternateBounds" />
          </mxGeometry>
        </mxCell>
        <mxCell id="gclZs07xCVBIOaA7RyX3-9" value="Emite Luminosidade do Quarto" style="shape=partialRectangle;html=1;whiteSpace=wrap;connectable=0;strokeColor=inherit;overflow=hidden;fillColor=none;top=0;left=0;bottom=0;right=0;pointerEvents=1;fontSize=17;" parent="gclZs07xCVBIOaA7RyX3-6" vertex="1">
          <mxGeometry x="322" width="161" height="70" as="geometry">
            <mxRectangle width="161" height="70" as="alternateBounds" />
          </mxGeometry>
        </mxCell>
        <mxCell id="r6usoJKrATchnA_4UxM2-14" value="192.168.1.127" style="shape=partialRectangle;html=1;whiteSpace=wrap;connectable=0;strokeColor=inherit;overflow=hidden;fillColor=none;top=0;left=0;bottom=0;right=0;pointerEvents=1;fontSize=17;" vertex="1" parent="gclZs07xCVBIOaA7RyX3-6">
          <mxGeometry x="483" width="161" height="70" as="geometry">
            <mxRectangle width="161" height="70" as="alternateBounds" />
          </mxGeometry>
        </mxCell>
        <mxCell id="r6usoJKrATchnA_4UxM2-17" value="192.168.1.138" style="shape=partialRectangle;html=1;whiteSpace=wrap;connectable=0;strokeColor=inherit;overflow=hidden;fillColor=none;top=0;left=0;bottom=0;right=0;pointerEvents=1;fontSize=17;" vertex="1" parent="gclZs07xCVBIOaA7RyX3-6">
          <mxGeometry x="644" width="161" height="70" as="geometry">
            <mxRectangle width="161" height="70" as="alternateBounds" />
          </mxGeometry>
        </mxCell>
        <mxCell id="gclZs07xCVBIOaA7RyX3-10" value="" style="shape=tableRow;horizontal=0;startSize=0;swimlaneHead=0;swimlaneBody=0;strokeColor=inherit;top=0;left=0;bottom=0;right=0;collapsible=0;dropTarget=0;fillColor=none;points=[[0,0.5],[1,0.5]];portConstraint=eastwest;fontSize=16;" parent="gclZs07xCVBIOaA7RyX3-1" vertex="1">
          <mxGeometry y="170" width="805" height="70" as="geometry" />
        </mxCell>
        <mxCell id="gclZs07xCVBIOaA7RyX3-11" value="84:0D:8E:AB:E3:CF" style="shape=partialRectangle;html=1;whiteSpace=wrap;connectable=0;strokeColor=inherit;overflow=hidden;fillColor=none;top=0;left=0;bottom=0;right=0;pointerEvents=1;fontSize=17;" parent="gclZs07xCVBIOaA7RyX3-10" vertex="1">
          <mxGeometry width="179" height="70" as="geometry">
            <mxRectangle width="179" height="70" as="alternateBounds" />
          </mxGeometry>
        </mxCell>
        <mxCell id="gclZs07xCVBIOaA7RyX3-12" value="ESP Da Sala" style="shape=partialRectangle;html=1;whiteSpace=wrap;connectable=0;strokeColor=inherit;overflow=hidden;fillColor=none;top=0;left=0;bottom=0;right=0;pointerEvents=1;fontSize=17;" parent="gclZs07xCVBIOaA7RyX3-10" vertex="1">
          <mxGeometry x="179" width="143" height="70" as="geometry">
            <mxRectangle width="143" height="70" as="alternateBounds" />
          </mxGeometry>
        </mxCell>
        <mxCell id="gclZs07xCVBIOaA7RyX3-13" value="Emite Humidade da Sala" style="shape=partialRectangle;html=1;whiteSpace=wrap;connectable=0;strokeColor=inherit;overflow=hidden;fillColor=none;top=0;left=0;bottom=0;right=0;pointerEvents=1;fontSize=17;" parent="gclZs07xCVBIOaA7RyX3-10" vertex="1">
          <mxGeometry x="322" width="161" height="70" as="geometry">
            <mxRectangle width="161" height="70" as="alternateBounds" />
          </mxGeometry>
        </mxCell>
        <mxCell id="r6usoJKrATchnA_4UxM2-15" value="192.168.1.129" style="shape=partialRectangle;html=1;whiteSpace=wrap;connectable=0;strokeColor=inherit;overflow=hidden;fillColor=none;top=0;left=0;bottom=0;right=0;pointerEvents=1;fontSize=17;" vertex="1" parent="gclZs07xCVBIOaA7RyX3-10">
          <mxGeometry x="483" width="161" height="70" as="geometry">
            <mxRectangle width="161" height="70" as="alternateBounds" />
          </mxGeometry>
        </mxCell>
        <mxCell id="r6usoJKrATchnA_4UxM2-18" value="192.168.1.140" style="shape=partialRectangle;html=1;whiteSpace=wrap;connectable=0;strokeColor=inherit;overflow=hidden;fillColor=none;top=0;left=0;bottom=0;right=0;pointerEvents=1;fontSize=17;" vertex="1" parent="gclZs07xCVBIOaA7RyX3-10">
          <mxGeometry x="644" width="161" height="70" as="geometry">
            <mxRectangle width="161" height="70" as="alternateBounds" />
          </mxGeometry>
        </mxCell>
        <mxCell id="gclZs07xCVBIOaA7RyX3-14" value="SENSORES" style="shape=table;startSize=30;container=1;collapsible=0;childLayout=tableLayout;strokeColor=default;fontSize=16;fillColor=#A9C4EB;fontStyle=1;fontColor=#FFFFFF;" parent="1" vertex="1">
          <mxGeometry x="-2530" y="-600" width="1370" height="240" as="geometry" />
        </mxCell>
        <mxCell id="gclZs07xCVBIOaA7RyX3-15" value="" style="shape=tableRow;horizontal=0;startSize=0;swimlaneHead=0;swimlaneBody=0;strokeColor=inherit;top=0;left=0;bottom=0;right=0;collapsible=0;dropTarget=0;fillColor=none;points=[[0,0.5],[1,0.5]];portConstraint=eastwest;fontSize=16;" parent="gclZs07xCVBIOaA7RyX3-14" vertex="1">
          <mxGeometry y="30" width="1370" height="56" as="geometry" />
        </mxCell>
        <mxCell id="gclZs07xCVBIOaA7RyX3-16" value="&lt;b&gt;SensorID&lt;/b&gt;" style="shape=partialRectangle;html=1;whiteSpace=wrap;connectable=0;strokeColor=inherit;overflow=hidden;fillColor=#004080;top=0;left=0;bottom=0;right=0;pointerEvents=1;fontSize=16;strokeWidth=0;fontColor=#FFFFFF;" parent="gclZs07xCVBIOaA7RyX3-15" vertex="1">
          <mxGeometry width="100" height="56" as="geometry">
            <mxRectangle width="100" height="56" as="alternateBounds" />
          </mxGeometry>
        </mxCell>
        <mxCell id="gclZs07xCVBIOaA7RyX3-17" value="&lt;b&gt;MacAddress&lt;/b&gt;" style="shape=partialRectangle;html=1;whiteSpace=wrap;connectable=0;strokeColor=inherit;overflow=hidden;fillColor=#004080;top=0;left=0;bottom=0;right=0;pointerEvents=1;fontSize=16;strokeWidth=0;fontColor=#FFFFFF;" parent="gclZs07xCVBIOaA7RyX3-15" vertex="1">
          <mxGeometry x="100" width="207" height="56" as="geometry">
            <mxRectangle width="207" height="56" as="alternateBounds" />
          </mxGeometry>
        </mxCell>
        <mxCell id="gclZs07xCVBIOaA7RyX3-18" value="&lt;b&gt;Nome&lt;/b&gt;" style="shape=partialRectangle;html=1;whiteSpace=wrap;connectable=0;strokeColor=inherit;overflow=hidden;fillColor=#004080;top=0;left=0;bottom=0;right=0;pointerEvents=1;fontSize=16;strokeWidth=0;fontColor=#FFFFFF;" parent="gclZs07xCVBIOaA7RyX3-15" vertex="1">
          <mxGeometry x="307" width="143" height="56" as="geometry">
            <mxRectangle width="143" height="56" as="alternateBounds" />
          </mxGeometry>
        </mxCell>
        <mxCell id="gclZs07xCVBIOaA7RyX3-19" value="&lt;b&gt;Tipo&lt;/b&gt;" style="shape=partialRectangle;html=1;whiteSpace=wrap;connectable=0;strokeColor=inherit;overflow=hidden;fillColor=#004080;top=0;left=0;bottom=0;right=0;pointerEvents=1;fontSize=16;strokeWidth=0;fontColor=#FFFFFF;" parent="gclZs07xCVBIOaA7RyX3-15" vertex="1">
          <mxGeometry x="450" width="130" height="56" as="geometry">
            <mxRectangle width="130" height="56" as="alternateBounds" />
          </mxGeometry>
        </mxCell>
        <mxCell id="ekEdZxu0tcRS5OrNTWhy-1" value="&lt;b&gt;Pin&lt;/b&gt;" style="shape=partialRectangle;html=1;whiteSpace=wrap;connectable=0;strokeColor=inherit;overflow=hidden;fillColor=#004080;top=0;left=0;bottom=0;right=0;pointerEvents=1;fontSize=16;strokeWidth=0;fontColor=#FFFFFF;" parent="gclZs07xCVBIOaA7RyX3-15" vertex="1">
          <mxGeometry x="580" width="105" height="56" as="geometry">
            <mxRectangle width="105" height="56" as="alternateBounds" />
          </mxGeometry>
        </mxCell>
        <mxCell id="gclZs07xCVBIOaA7RyX3-20" value="&lt;b&gt;ModoOperacao&lt;/b&gt;" style="shape=partialRectangle;html=1;whiteSpace=wrap;connectable=0;strokeColor=inherit;overflow=hidden;fillColor=#004080;top=0;left=0;bottom=0;right=0;pointerEvents=1;fontSize=16;strokeWidth=0;fontColor=#FFFFFF;" parent="gclZs07xCVBIOaA7RyX3-15" vertex="1">
          <mxGeometry x="685" width="175" height="56" as="geometry">
            <mxRectangle width="175" height="56" as="alternateBounds" />
          </mxGeometry>
        </mxCell>
        <mxCell id="gclZs07xCVBIOaA7RyX3-21" value="&lt;b&gt;Valor&lt;/b&gt;" style="shape=partialRectangle;html=1;whiteSpace=wrap;connectable=0;strokeColor=inherit;overflow=hidden;fillColor=#004080;top=0;left=0;bottom=0;right=0;pointerEvents=1;fontSize=16;strokeWidth=0;fontColor=#FFFFFF;" parent="gclZs07xCVBIOaA7RyX3-15" vertex="1">
          <mxGeometry x="860" width="99" height="56" as="geometry">
            <mxRectangle width="99" height="56" as="alternateBounds" />
          </mxGeometry>
        </mxCell>
        <mxCell id="r6usoJKrATchnA_4UxM2-19" value="&lt;b&gt;DataCriacao&lt;/b&gt;" style="shape=partialRectangle;html=1;whiteSpace=wrap;connectable=0;strokeColor=inherit;overflow=hidden;fillColor=#004080;top=0;left=0;bottom=0;right=0;pointerEvents=1;fontSize=16;strokeWidth=0;fontColor=#FFFFFF;" vertex="1" parent="gclZs07xCVBIOaA7RyX3-15">
          <mxGeometry x="959" width="181" height="56" as="geometry">
            <mxRectangle width="181" height="56" as="alternateBounds" />
          </mxGeometry>
        </mxCell>
        <mxCell id="r6usoJKrATchnA_4UxM2-23" value="&lt;b&gt;Unidade&lt;/b&gt;" style="shape=partialRectangle;html=1;whiteSpace=wrap;connectable=0;strokeColor=inherit;overflow=hidden;fillColor=#004080;top=0;left=0;bottom=0;right=0;pointerEvents=1;fontSize=16;strokeWidth=0;fontColor=#FFFFFF;" vertex="1" parent="gclZs07xCVBIOaA7RyX3-15">
          <mxGeometry x="1140" width="140" height="56" as="geometry">
            <mxRectangle width="140" height="56" as="alternateBounds" />
          </mxGeometry>
        </mxCell>
        <mxCell id="r6usoJKrATchnA_4UxM2-27" value="&lt;b&gt;isDeleted&lt;/b&gt;" style="shape=partialRectangle;html=1;whiteSpace=wrap;connectable=0;strokeColor=inherit;overflow=hidden;fillColor=#004080;top=0;left=0;bottom=0;right=0;pointerEvents=1;fontSize=16;strokeWidth=0;fontColor=#FFFFFF;" vertex="1" parent="gclZs07xCVBIOaA7RyX3-15">
          <mxGeometry x="1280" width="90" height="56" as="geometry">
            <mxRectangle width="90" height="56" as="alternateBounds" />
          </mxGeometry>
        </mxCell>
        <mxCell id="gclZs07xCVBIOaA7RyX3-22" value="" style="shape=tableRow;horizontal=0;startSize=0;swimlaneHead=0;swimlaneBody=0;strokeColor=inherit;top=0;left=0;bottom=0;right=0;collapsible=0;dropTarget=0;fillColor=none;points=[[0,0.5],[1,0.5]];portConstraint=eastwest;fontSize=16;" parent="gclZs07xCVBIOaA7RyX3-14" vertex="1">
          <mxGeometry y="86" width="1370" height="90" as="geometry" />
        </mxCell>
        <mxCell id="gclZs07xCVBIOaA7RyX3-23" value="1" style="shape=partialRectangle;html=1;whiteSpace=wrap;connectable=0;strokeColor=inherit;overflow=hidden;fillColor=none;top=0;left=0;bottom=0;right=0;pointerEvents=1;fontSize=17;" parent="gclZs07xCVBIOaA7RyX3-22" vertex="1">
          <mxGeometry width="100" height="90" as="geometry">
            <mxRectangle width="100" height="90" as="alternateBounds" />
          </mxGeometry>
        </mxCell>
        <mxCell id="gclZs07xCVBIOaA7RyX3-24" value="84:0D:8E:AB:E3:CC" style="shape=partialRectangle;html=1;whiteSpace=wrap;connectable=0;strokeColor=inherit;overflow=hidden;fillColor=none;top=0;left=0;bottom=0;right=0;pointerEvents=1;fontSize=17;" parent="gclZs07xCVBIOaA7RyX3-22" vertex="1">
          <mxGeometry x="100" width="207" height="90" as="geometry">
            <mxRectangle width="207" height="90" as="alternateBounds" />
          </mxGeometry>
        </mxCell>
        <mxCell id="gclZs07xCVBIOaA7RyX3-25" value="Luminosidade" style="shape=partialRectangle;html=1;whiteSpace=wrap;connectable=0;strokeColor=inherit;overflow=hidden;fillColor=none;top=0;left=0;bottom=0;right=0;pointerEvents=1;fontSize=17;" parent="gclZs07xCVBIOaA7RyX3-22" vertex="1">
          <mxGeometry x="307" width="143" height="90" as="geometry">
            <mxRectangle width="143" height="90" as="alternateBounds" />
          </mxGeometry>
        </mxCell>
        <mxCell id="gclZs07xCVBIOaA7RyX3-26" value="Luminosidade" style="shape=partialRectangle;html=1;whiteSpace=wrap;connectable=0;strokeColor=inherit;overflow=hidden;fillColor=none;top=0;left=0;bottom=0;right=0;pointerEvents=1;fontSize=17;" parent="gclZs07xCVBIOaA7RyX3-22" vertex="1">
          <mxGeometry x="450" width="130" height="90" as="geometry">
            <mxRectangle width="130" height="90" as="alternateBounds" />
          </mxGeometry>
        </mxCell>
        <mxCell id="ekEdZxu0tcRS5OrNTWhy-2" value="A0" style="shape=partialRectangle;html=1;whiteSpace=wrap;connectable=0;strokeColor=inherit;overflow=hidden;fillColor=none;top=0;left=0;bottom=0;right=0;pointerEvents=1;fontSize=17;" parent="gclZs07xCVBIOaA7RyX3-22" vertex="1">
          <mxGeometry x="580" width="105" height="90" as="geometry">
            <mxRectangle width="105" height="90" as="alternateBounds" />
          </mxGeometry>
        </mxCell>
        <mxCell id="gclZs07xCVBIOaA7RyX3-27" value="Analogico" style="shape=partialRectangle;html=1;whiteSpace=wrap;connectable=0;strokeColor=inherit;overflow=hidden;fillColor=none;top=0;left=0;bottom=0;right=0;pointerEvents=1;fontSize=17;" parent="gclZs07xCVBIOaA7RyX3-22" vertex="1">
          <mxGeometry x="685" width="175" height="90" as="geometry">
            <mxRectangle width="175" height="90" as="alternateBounds" />
          </mxGeometry>
        </mxCell>
        <mxCell id="gclZs07xCVBIOaA7RyX3-28" value="779" style="shape=partialRectangle;html=1;whiteSpace=wrap;connectable=0;strokeColor=inherit;overflow=hidden;fillColor=none;top=0;left=0;bottom=0;right=0;pointerEvents=1;fontSize=17;" parent="gclZs07xCVBIOaA7RyX3-22" vertex="1">
          <mxGeometry x="860" width="99" height="90" as="geometry">
            <mxRectangle width="99" height="90" as="alternateBounds" />
          </mxGeometry>
        </mxCell>
        <mxCell id="r6usoJKrATchnA_4UxM2-20" value="2024-06-07 10:41:30" style="shape=partialRectangle;html=1;whiteSpace=wrap;connectable=0;strokeColor=inherit;overflow=hidden;fillColor=none;top=0;left=0;bottom=0;right=0;pointerEvents=1;fontSize=17;" vertex="1" parent="gclZs07xCVBIOaA7RyX3-22">
          <mxGeometry x="959" width="181" height="90" as="geometry">
            <mxRectangle width="181" height="90" as="alternateBounds" />
          </mxGeometry>
        </mxCell>
        <mxCell id="r6usoJKrATchnA_4UxM2-24" value="Lumens" style="shape=partialRectangle;html=1;whiteSpace=wrap;connectable=0;strokeColor=inherit;overflow=hidden;fillColor=none;top=0;left=0;bottom=0;right=0;pointerEvents=1;fontSize=17;" vertex="1" parent="gclZs07xCVBIOaA7RyX3-22">
          <mxGeometry x="1140" width="140" height="90" as="geometry">
            <mxRectangle width="140" height="90" as="alternateBounds" />
          </mxGeometry>
        </mxCell>
        <mxCell id="r6usoJKrATchnA_4UxM2-28" value="1" style="shape=partialRectangle;html=1;whiteSpace=wrap;connectable=0;strokeColor=inherit;overflow=hidden;fillColor=none;top=0;left=0;bottom=0;right=0;pointerEvents=1;fontSize=17;" vertex="1" parent="gclZs07xCVBIOaA7RyX3-22">
          <mxGeometry x="1280" width="90" height="90" as="geometry">
            <mxRectangle width="90" height="90" as="alternateBounds" />
          </mxGeometry>
        </mxCell>
        <mxCell id="r6usoJKrATchnA_4UxM2-31" value="" style="shape=tableRow;horizontal=0;startSize=0;swimlaneHead=0;swimlaneBody=0;strokeColor=inherit;top=0;left=0;bottom=0;right=0;collapsible=0;dropTarget=0;fillColor=none;points=[[0,0.5],[1,0.5]];portConstraint=eastwest;fontSize=16;" vertex="1" parent="gclZs07xCVBIOaA7RyX3-14">
          <mxGeometry y="176" width="1370" height="64" as="geometry" />
        </mxCell>
        <mxCell id="r6usoJKrATchnA_4UxM2-32" value="2" style="shape=partialRectangle;html=1;whiteSpace=wrap;connectable=0;strokeColor=inherit;overflow=hidden;fillColor=none;top=0;left=0;bottom=0;right=0;pointerEvents=1;fontSize=17;" vertex="1" parent="r6usoJKrATchnA_4UxM2-31">
          <mxGeometry width="100" height="64" as="geometry">
            <mxRectangle width="100" height="64" as="alternateBounds" />
          </mxGeometry>
        </mxCell>
        <mxCell id="r6usoJKrATchnA_4UxM2-33" value="84:0D:8E:AB:E3:CC" style="shape=partialRectangle;html=1;whiteSpace=wrap;connectable=0;strokeColor=inherit;overflow=hidden;fillColor=none;top=0;left=0;bottom=0;right=0;pointerEvents=1;fontSize=17;" vertex="1" parent="r6usoJKrATchnA_4UxM2-31">
          <mxGeometry x="100" width="207" height="64" as="geometry">
            <mxRectangle width="207" height="64" as="alternateBounds" />
          </mxGeometry>
        </mxCell>
        <mxCell id="r6usoJKrATchnA_4UxM2-34" value="Humidade" style="shape=partialRectangle;html=1;whiteSpace=wrap;connectable=0;strokeColor=inherit;overflow=hidden;fillColor=none;top=0;left=0;bottom=0;right=0;pointerEvents=1;fontSize=17;" vertex="1" parent="r6usoJKrATchnA_4UxM2-31">
          <mxGeometry x="307" width="143" height="64" as="geometry">
            <mxRectangle width="143" height="64" as="alternateBounds" />
          </mxGeometry>
        </mxCell>
        <mxCell id="r6usoJKrATchnA_4UxM2-35" value="DHT11" style="shape=partialRectangle;html=1;whiteSpace=wrap;connectable=0;strokeColor=inherit;overflow=hidden;fillColor=none;top=0;left=0;bottom=0;right=0;pointerEvents=1;fontSize=17;" vertex="1" parent="r6usoJKrATchnA_4UxM2-31">
          <mxGeometry x="450" width="130" height="64" as="geometry">
            <mxRectangle width="130" height="64" as="alternateBounds" />
          </mxGeometry>
        </mxCell>
        <mxCell id="r6usoJKrATchnA_4UxM2-36" value="A1" style="shape=partialRectangle;html=1;whiteSpace=wrap;connectable=0;strokeColor=inherit;overflow=hidden;fillColor=none;top=0;left=0;bottom=0;right=0;pointerEvents=1;fontSize=17;" vertex="1" parent="r6usoJKrATchnA_4UxM2-31">
          <mxGeometry x="580" width="105" height="64" as="geometry">
            <mxRectangle width="105" height="64" as="alternateBounds" />
          </mxGeometry>
        </mxCell>
        <mxCell id="r6usoJKrATchnA_4UxM2-37" value="Analogico" style="shape=partialRectangle;html=1;whiteSpace=wrap;connectable=0;strokeColor=inherit;overflow=hidden;fillColor=none;top=0;left=0;bottom=0;right=0;pointerEvents=1;fontSize=17;" vertex="1" parent="r6usoJKrATchnA_4UxM2-31">
          <mxGeometry x="685" width="175" height="64" as="geometry">
            <mxRectangle width="175" height="64" as="alternateBounds" />
          </mxGeometry>
        </mxCell>
        <mxCell id="r6usoJKrATchnA_4UxM2-38" value="50" style="shape=partialRectangle;html=1;whiteSpace=wrap;connectable=0;strokeColor=inherit;overflow=hidden;fillColor=none;top=0;left=0;bottom=0;right=0;pointerEvents=1;fontSize=17;" vertex="1" parent="r6usoJKrATchnA_4UxM2-31">
          <mxGeometry x="860" width="99" height="64" as="geometry">
            <mxRectangle width="99" height="64" as="alternateBounds" />
          </mxGeometry>
        </mxCell>
        <mxCell id="r6usoJKrATchnA_4UxM2-39" value="2024-06-07 10:44:30" style="shape=partialRectangle;html=1;whiteSpace=wrap;connectable=0;strokeColor=inherit;overflow=hidden;fillColor=none;top=0;left=0;bottom=0;right=0;pointerEvents=1;fontSize=17;" vertex="1" parent="r6usoJKrATchnA_4UxM2-31">
          <mxGeometry x="959" width="181" height="64" as="geometry">
            <mxRectangle width="181" height="64" as="alternateBounds" />
          </mxGeometry>
        </mxCell>
        <mxCell id="r6usoJKrATchnA_4UxM2-40" value="Percentagem" style="shape=partialRectangle;html=1;whiteSpace=wrap;connectable=0;strokeColor=inherit;overflow=hidden;fillColor=none;top=0;left=0;bottom=0;right=0;pointerEvents=1;fontSize=17;" vertex="1" parent="r6usoJKrATchnA_4UxM2-31">
          <mxGeometry x="1140" width="140" height="64" as="geometry">
            <mxRectangle width="140" height="64" as="alternateBounds" />
          </mxGeometry>
        </mxCell>
        <mxCell id="r6usoJKrATchnA_4UxM2-41" value="0" style="shape=partialRectangle;html=1;whiteSpace=wrap;connectable=0;strokeColor=inherit;overflow=hidden;fillColor=none;top=0;left=0;bottom=0;right=0;pointerEvents=1;fontSize=17;" vertex="1" parent="r6usoJKrATchnA_4UxM2-31">
          <mxGeometry x="1280" width="90" height="64" as="geometry">
            <mxRectangle width="90" height="64" as="alternateBounds" />
          </mxGeometry>
        </mxCell>
        <mxCell id="PyOxiXS3zdxRAkdPF4rB-2" value="Projeto InformÃ¡tico - Smart Lab IoT&lt;b&gt;&lt;br&gt;&lt;/b&gt;&lt;font color=&quot;#5f9acf&quot;&gt;&lt;b&gt;&lt;font style=&quot;font-size: 20px;&quot;&gt;MODELO CONCEPTUAL COM DADOS&lt;br&gt;&lt;/font&gt;&lt;/b&gt;&lt;/font&gt;" style="text;html=1;strokeColor=none;fillColor=none;align=center;verticalAlign=middle;whiteSpace=wrap;rounded=0;fontSize=16;" parent="1" vertex="1">
          <mxGeometry x="-1645" y="-1140" width="808" height="30" as="geometry" />
        </mxCell>
        <mxCell id="r6usoJKrATchnA_4UxM2-42" value="ATUADORES" style="shape=table;startSize=30;container=1;collapsible=0;childLayout=tableLayout;strokeColor=default;fontSize=16;fillColor=#A9C4EB;fontStyle=1;fontColor=#FFFFFF;" vertex="1" parent="1">
          <mxGeometry x="-1110" y="-590" width="970" height="210" as="geometry" />
        </mxCell>
        <mxCell id="r6usoJKrATchnA_4UxM2-43" value="" style="shape=tableRow;horizontal=0;startSize=0;swimlaneHead=0;swimlaneBody=0;strokeColor=inherit;top=0;left=0;bottom=0;right=0;collapsible=0;dropTarget=0;fillColor=none;points=[[0,0.5],[1,0.5]];portConstraint=eastwest;fontSize=16;" vertex="1" parent="r6usoJKrATchnA_4UxM2-42">
          <mxGeometry y="30" width="970" height="70" as="geometry" />
        </mxCell>
        <mxCell id="r6usoJKrATchnA_4UxM2-44" value="&lt;b&gt;ActuatorID&lt;/b&gt;" style="shape=partialRectangle;html=1;whiteSpace=wrap;connectable=0;strokeColor=inherit;overflow=hidden;fillColor=#004080;top=0;left=0;bottom=0;right=0;pointerEvents=1;fontSize=16;strokeWidth=0;fontColor=#FFFFFF;" vertex="1" parent="r6usoJKrATchnA_4UxM2-43">
          <mxGeometry width="90" height="70" as="geometry">
            <mxRectangle width="90" height="70" as="alternateBounds" />
          </mxGeometry>
        </mxCell>
        <mxCell id="r6usoJKrATchnA_4UxM2-45" value="&lt;b&gt;MacAddress&lt;/b&gt;" style="shape=partialRectangle;html=1;whiteSpace=wrap;connectable=0;strokeColor=inherit;overflow=hidden;fillColor=#004080;top=0;left=0;bottom=0;right=0;pointerEvents=1;fontSize=16;strokeWidth=0;fontColor=#FFFFFF;" vertex="1" parent="r6usoJKrATchnA_4UxM2-43">
          <mxGeometry x="90" width="160" height="70" as="geometry">
            <mxRectangle width="160" height="70" as="alternateBounds" />
          </mxGeometry>
        </mxCell>
        <mxCell id="r6usoJKrATchnA_4UxM2-46" value="&lt;b&gt;Nome&lt;/b&gt;" style="shape=partialRectangle;html=1;whiteSpace=wrap;connectable=0;strokeColor=inherit;overflow=hidden;fillColor=#004080;top=0;left=0;bottom=0;right=0;pointerEvents=1;fontSize=16;strokeWidth=0;fontColor=#FFFFFF;" vertex="1" parent="r6usoJKrATchnA_4UxM2-43">
          <mxGeometry x="250" width="70" height="70" as="geometry">
            <mxRectangle width="70" height="70" as="alternateBounds" />
          </mxGeometry>
        </mxCell>
        <mxCell id="r6usoJKrATchnA_4UxM2-47" value="&lt;b&gt;Tipo&lt;/b&gt;" style="shape=partialRectangle;html=1;whiteSpace=wrap;connectable=0;strokeColor=inherit;overflow=hidden;fillColor=#004080;top=0;left=0;bottom=0;right=0;pointerEvents=1;fontSize=16;strokeWidth=0;fontColor=#FFFFFF;" vertex="1" parent="r6usoJKrATchnA_4UxM2-43">
          <mxGeometry x="320" width="68" height="70" as="geometry">
            <mxRectangle width="68" height="70" as="alternateBounds" />
          </mxGeometry>
        </mxCell>
        <mxCell id="r6usoJKrATchnA_4UxM2-48" value="&lt;b&gt;Pin&lt;/b&gt;" style="shape=partialRectangle;html=1;whiteSpace=wrap;connectable=0;strokeColor=inherit;overflow=hidden;fillColor=#004080;top=0;left=0;bottom=0;right=0;pointerEvents=1;fontSize=16;strokeWidth=0;fontColor=#FFFFFF;" vertex="1" parent="r6usoJKrATchnA_4UxM2-43">
          <mxGeometry x="388" width="62" height="70" as="geometry">
            <mxRectangle width="62" height="70" as="alternateBounds" />
          </mxGeometry>
        </mxCell>
        <mxCell id="r6usoJKrATchnA_4UxM2-49" value="&lt;b&gt;ModoOperacao&lt;/b&gt;" style="shape=partialRectangle;html=1;whiteSpace=wrap;connectable=0;strokeColor=inherit;overflow=hidden;fillColor=#004080;top=0;left=0;bottom=0;right=0;pointerEvents=1;fontSize=16;strokeWidth=0;fontColor=#FFFFFF;" vertex="1" parent="r6usoJKrATchnA_4UxM2-43">
          <mxGeometry x="450" width="132" height="70" as="geometry">
            <mxRectangle width="132" height="70" as="alternateBounds" />
          </mxGeometry>
        </mxCell>
        <mxCell id="r6usoJKrATchnA_4UxM2-50" value="&lt;b&gt;Valor&lt;/b&gt;" style="shape=partialRectangle;html=1;whiteSpace=wrap;connectable=0;strokeColor=inherit;overflow=hidden;fillColor=#004080;top=0;left=0;bottom=0;right=0;pointerEvents=1;fontSize=16;strokeWidth=0;fontColor=#FFFFFF;" vertex="1" parent="r6usoJKrATchnA_4UxM2-43">
          <mxGeometry x="582" width="68" height="70" as="geometry">
            <mxRectangle width="68" height="70" as="alternateBounds" />
          </mxGeometry>
        </mxCell>
        <mxCell id="r6usoJKrATchnA_4UxM2-51" value="&lt;b&gt;DataCriacao&lt;/b&gt;" style="shape=partialRectangle;html=1;whiteSpace=wrap;connectable=0;strokeColor=inherit;overflow=hidden;fillColor=#004080;top=0;left=0;bottom=0;right=0;pointerEvents=1;fontSize=16;strokeWidth=0;fontColor=#FFFFFF;" vertex="1" parent="r6usoJKrATchnA_4UxM2-43">
          <mxGeometry x="650" width="126" height="70" as="geometry">
            <mxRectangle width="126" height="70" as="alternateBounds" />
          </mxGeometry>
        </mxCell>
        <mxCell id="r6usoJKrATchnA_4UxM2-52" value="&lt;b&gt;Unidade&lt;/b&gt;" style="shape=partialRectangle;html=1;whiteSpace=wrap;connectable=0;strokeColor=inherit;overflow=hidden;fillColor=#004080;top=0;left=0;bottom=0;right=0;pointerEvents=1;fontSize=16;strokeWidth=0;fontColor=#FFFFFF;" vertex="1" parent="r6usoJKrATchnA_4UxM2-43">
          <mxGeometry x="776" width="104" height="70" as="geometry">
            <mxRectangle width="104" height="70" as="alternateBounds" />
          </mxGeometry>
        </mxCell>
        <mxCell id="r6usoJKrATchnA_4UxM2-53" value="&lt;b&gt;isDeleted&lt;/b&gt;" style="shape=partialRectangle;html=1;whiteSpace=wrap;connectable=0;strokeColor=inherit;overflow=hidden;fillColor=#004080;top=0;left=0;bottom=0;right=0;pointerEvents=1;fontSize=16;strokeWidth=0;fontColor=#FFFFFF;" vertex="1" parent="r6usoJKrATchnA_4UxM2-43">
          <mxGeometry x="880" width="90" height="70" as="geometry">
            <mxRectangle width="90" height="70" as="alternateBounds" />
          </mxGeometry>
        </mxCell>
        <mxCell id="r6usoJKrATchnA_4UxM2-54" value="" style="shape=tableRow;horizontal=0;startSize=0;swimlaneHead=0;swimlaneBody=0;strokeColor=inherit;top=0;left=0;bottom=0;right=0;collapsible=0;dropTarget=0;fillColor=none;points=[[0,0.5],[1,0.5]];portConstraint=eastwest;fontSize=16;" vertex="1" parent="r6usoJKrATchnA_4UxM2-42">
          <mxGeometry y="100" width="970" height="110" as="geometry" />
        </mxCell>
        <mxCell id="r6usoJKrATchnA_4UxM2-55" value="0" style="shape=partialRectangle;html=1;whiteSpace=wrap;connectable=0;strokeColor=inherit;overflow=hidden;fillColor=none;top=0;left=0;bottom=0;right=0;pointerEvents=1;fontSize=17;" vertex="1" parent="r6usoJKrATchnA_4UxM2-54">
          <mxGeometry width="90" height="110" as="geometry">
            <mxRectangle width="90" height="110" as="alternateBounds" />
          </mxGeometry>
        </mxCell>
        <mxCell id="r6usoJKrATchnA_4UxM2-56" value="84:0D:8E:AB:E3:CF" style="shape=partialRectangle;html=1;whiteSpace=wrap;connectable=0;strokeColor=inherit;overflow=hidden;fillColor=none;top=0;left=0;bottom=0;right=0;pointerEvents=1;fontSize=17;" vertex="1" parent="r6usoJKrATchnA_4UxM2-54">
          <mxGeometry x="90" width="160" height="110" as="geometry">
            <mxRectangle width="160" height="110" as="alternateBounds" />
          </mxGeometry>
        </mxCell>
        <mxCell id="r6usoJKrATchnA_4UxM2-57" value="LED" style="shape=partialRectangle;html=1;whiteSpace=wrap;connectable=0;strokeColor=inherit;overflow=hidden;fillColor=none;top=0;left=0;bottom=0;right=0;pointerEvents=1;fontSize=17;" vertex="1" parent="r6usoJKrATchnA_4UxM2-54">
          <mxGeometry x="250" width="70" height="110" as="geometry">
            <mxRectangle width="70" height="110" as="alternateBounds" />
          </mxGeometry>
        </mxCell>
        <mxCell id="r6usoJKrATchnA_4UxM2-58" value="LED" style="shape=partialRectangle;html=1;whiteSpace=wrap;connectable=0;strokeColor=inherit;overflow=hidden;fillColor=none;top=0;left=0;bottom=0;right=0;pointerEvents=1;fontSize=17;" vertex="1" parent="r6usoJKrATchnA_4UxM2-54">
          <mxGeometry x="320" width="68" height="110" as="geometry">
            <mxRectangle width="68" height="110" as="alternateBounds" />
          </mxGeometry>
        </mxCell>
        <mxCell id="r6usoJKrATchnA_4UxM2-59" value="2" style="shape=partialRectangle;html=1;whiteSpace=wrap;connectable=0;strokeColor=inherit;overflow=hidden;fillColor=none;top=0;left=0;bottom=0;right=0;pointerEvents=1;fontSize=17;" vertex="1" parent="r6usoJKrATchnA_4UxM2-54">
          <mxGeometry x="388" width="62" height="110" as="geometry">
            <mxRectangle width="62" height="110" as="alternateBounds" />
          </mxGeometry>
        </mxCell>
        <mxCell id="r6usoJKrATchnA_4UxM2-60" value="Digital" style="shape=partialRectangle;html=1;whiteSpace=wrap;connectable=0;strokeColor=inherit;overflow=hidden;fillColor=none;top=0;left=0;bottom=0;right=0;pointerEvents=1;fontSize=17;" vertex="1" parent="r6usoJKrATchnA_4UxM2-54">
          <mxGeometry x="450" width="132" height="110" as="geometry">
            <mxRectangle width="132" height="110" as="alternateBounds" />
          </mxGeometry>
        </mxCell>
        <mxCell id="r6usoJKrATchnA_4UxM2-61" value="1" style="shape=partialRectangle;html=1;whiteSpace=wrap;connectable=0;strokeColor=inherit;overflow=hidden;fillColor=none;top=0;left=0;bottom=0;right=0;pointerEvents=1;fontSize=17;" vertex="1" parent="r6usoJKrATchnA_4UxM2-54">
          <mxGeometry x="582" width="68" height="110" as="geometry">
            <mxRectangle width="68" height="110" as="alternateBounds" />
          </mxGeometry>
        </mxCell>
        <mxCell id="r6usoJKrATchnA_4UxM2-62" value="2024-06-08 10:41:30" style="shape=partialRectangle;html=1;whiteSpace=wrap;connectable=0;strokeColor=inherit;overflow=hidden;fillColor=none;top=0;left=0;bottom=0;right=0;pointerEvents=1;fontSize=17;" vertex="1" parent="r6usoJKrATchnA_4UxM2-54">
          <mxGeometry x="650" width="126" height="110" as="geometry">
            <mxRectangle width="126" height="110" as="alternateBounds" />
          </mxGeometry>
        </mxCell>
        <mxCell id="r6usoJKrATchnA_4UxM2-63" value="Bool" style="shape=partialRectangle;html=1;whiteSpace=wrap;connectable=0;strokeColor=inherit;overflow=hidden;fillColor=none;top=0;left=0;bottom=0;right=0;pointerEvents=1;fontSize=17;" vertex="1" parent="r6usoJKrATchnA_4UxM2-54">
          <mxGeometry x="776" width="104" height="110" as="geometry">
            <mxRectangle width="104" height="110" as="alternateBounds" />
          </mxGeometry>
        </mxCell>
        <mxCell id="r6usoJKrATchnA_4UxM2-64" value="0" style="shape=partialRectangle;html=1;whiteSpace=wrap;connectable=0;strokeColor=inherit;overflow=hidden;fillColor=none;top=0;left=0;bottom=0;right=0;pointerEvents=1;fontSize=17;" vertex="1" parent="r6usoJKrATchnA_4UxM2-54">
          <mxGeometry x="880" width="90" height="110" as="geometry">
            <mxRectangle width="90" height="110" as="alternateBounds" />
          </mxGeometry>
        </mxCell>
        <mxCell id="r6usoJKrATchnA_4UxM2-111" style="edgeStyle=orthogonalEdgeStyle;rounded=0;orthogonalLoop=1;jettySize=auto;html=1;entryX=0.04;entryY=1.037;entryDx=0;entryDy=0;entryPerimeter=0;exitX=0.091;exitY=1.021;exitDx=0;exitDy=0;exitPerimeter=0;" edge="1" parent="1">
          <mxGeometry relative="1" as="geometry">
            <mxPoint x="-2371.3800000000006" y="-358.65599999999995" as="sourcePoint" />
            <mxPoint x="-1653.8500000000001" y="-750" as="targetPoint" />
            <Array as="points">
              <mxPoint x="-2371" y="-292" />
              <mxPoint x="-2570" y="-292" />
              <mxPoint x="-2570" y="-667" />
              <mxPoint x="-1654" y="-667" />
            </Array>
          </mxGeometry>
        </mxCell>
        <mxCell id="r6usoJKrATchnA_4UxM2-113" value="&lt;font style=&quot;font-size: 15px;&quot;&gt;FK&lt;/font&gt;" style="edgeLabel;html=1;align=center;verticalAlign=middle;resizable=0;points=[];" vertex="1" connectable="0" parent="r6usoJKrATchnA_4UxM2-111">
          <mxGeometry x="-0.5009" relative="1" as="geometry">
            <mxPoint as="offset" />
          </mxGeometry>
        </mxCell>
        <mxCell id="tqxE6BD-uURPeQs4UY6Q-1" style="edgeStyle=orthogonalEdgeStyle;rounded=0;orthogonalLoop=1;jettySize=auto;html=1;entryX=0.162;entryY=1.01;entryDx=0;entryDy=0;entryPerimeter=0;" edge="1" parent="1" source="r6usoJKrATchnA_4UxM2-54" target="gclZs07xCVBIOaA7RyX3-10">
          <mxGeometry relative="1" as="geometry">
            <Array as="points">
              <mxPoint x="-950" y="-330" />
              <mxPoint x="-1130" y="-330" />
              <mxPoint x="-1130" y="-680" />
              <mxPoint x="-1590" y="-680" />
              <mxPoint x="-1590" y="-730" />
            </Array>
          </mxGeometry>
        </mxCell>
        <mxCell id="tqxE6BD-uURPeQs4UY6Q-2" value="&lt;font style=&quot;font-size: 15px;&quot;&gt;FK&lt;/font&gt;" style="edgeLabel;html=1;align=center;verticalAlign=middle;resizable=0;points=[];" vertex="1" connectable="0" parent="tqxE6BD-uURPeQs4UY6Q-1">
          <mxGeometry x="-0.3509" y="2" relative="1" as="geometry">
            <mxPoint x="56" y="130" as="offset" />
          </mxGeometry>
        </mxCell>
      </root>
    </mxGraphModel>
  </diagram>
  <diagram id="Idb6L8KJGAdDonWbGNv0" name="Modelo LÃ³gico ">
    <mxGraphModel dx="3133" dy="1802" grid="1" gridSize="10" guides="1" tooltips="1" connect="1" arrows="1" fold="1" page="1" pageScale="1" pageWidth="827" pageHeight="1169" math="0" shadow="0">
      <root>
        <mxCell id="0" />
        <mxCell id="1" parent="0" />
        <mxCell id="Ax_pxi_luzoAFx1aXrFG-1" value="Projeto InformÃ¡tico - Smart Lab IoT&lt;b&gt;&lt;br&gt;&lt;/b&gt;&lt;b&gt;&lt;font color=&quot;#99ccff&quot; style=&quot;font-size: 20px;&quot;&gt;MODELO LÃGICO&lt;/font&gt;&lt;/b&gt;" style="text;html=1;strokeColor=none;fillColor=none;align=center;verticalAlign=middle;whiteSpace=wrap;rounded=0;fontSize=16;" parent="1" vertex="1">
          <mxGeometry x="-1645" y="-1140" width="808" height="30" as="geometry" />
        </mxCell>
        <mxCell id="b3HpRe8rUkEuL4BjgY8o-1" value="DISPOSITIVOS" style="shape=table;startSize=30;container=1;collapsible=1;childLayout=tableLayout;fixedRows=1;rowLines=0;fontStyle=1;align=center;resizeLast=1;fillColor=#dae8fc;strokeColor=#6c8ebf;fontSize=16;" vertex="1" parent="1">
          <mxGeometry x="-1329" y="-1080" width="176" height="180.2240339006696" as="geometry">
            <mxRectangle x="520" y="20" width="70" height="30" as="alternateBounds" />
          </mxGeometry>
        </mxCell>
        <mxCell id="b3HpRe8rUkEuL4BjgY8o-2" value="" style="shape=partialRectangle;collapsible=0;dropTarget=0;pointerEvents=0;fillColor=none;points=[[0,0.5],[1,0.5]];portConstraint=eastwest;top=0;left=0;right=0;bottom=1;fontSize=16;" vertex="1" parent="b3HpRe8rUkEuL4BjgY8o-1">
          <mxGeometry y="30" width="176" height="30" as="geometry" />
        </mxCell>
        <mxCell id="b3HpRe8rUkEuL4BjgY8o-3" value="PK" style="shape=partialRectangle;overflow=hidden;connectable=0;fillColor=none;top=0;left=0;bottom=0;right=0;fontStyle=1;fontSize=16;" vertex="1" parent="b3HpRe8rUkEuL4BjgY8o-2">
          <mxGeometry width="30" height="30" as="geometry">
            <mxRectangle width="30" height="30" as="alternateBounds" />
          </mxGeometry>
        </mxCell>
        <mxCell id="b3HpRe8rUkEuL4BjgY8o-4" value="MacAddress" style="shape=partialRectangle;overflow=hidden;connectable=0;fillColor=none;top=0;left=0;bottom=0;right=0;align=left;spacingLeft=6;fontStyle=5;fontSize=16;" vertex="1" parent="b3HpRe8rUkEuL4BjgY8o-2">
          <mxGeometry x="30" width="146" height="30" as="geometry">
            <mxRectangle width="146" height="30" as="alternateBounds" />
          </mxGeometry>
        </mxCell>
        <mxCell id="b3HpRe8rUkEuL4BjgY8o-5" value="" style="shape=partialRectangle;collapsible=0;dropTarget=0;pointerEvents=0;fillColor=none;points=[[0,0.5],[1,0.5]];portConstraint=eastwest;top=0;left=0;right=0;bottom=0;fontSize=16;" vertex="1" parent="b3HpRe8rUkEuL4BjgY8o-1">
          <mxGeometry y="60" width="176" height="30" as="geometry" />
        </mxCell>
        <mxCell id="b3HpRe8rUkEuL4BjgY8o-6" value="" style="shape=partialRectangle;overflow=hidden;connectable=0;fillColor=none;top=0;left=0;bottom=0;right=0;fontSize=16;" vertex="1" parent="b3HpRe8rUkEuL4BjgY8o-5">
          <mxGeometry width="30" height="30" as="geometry">
            <mxRectangle width="30" height="30" as="alternateBounds" />
          </mxGeometry>
        </mxCell>
        <mxCell id="b3HpRe8rUkEuL4BjgY8o-7" value="Nome" style="shape=partialRectangle;overflow=hidden;connectable=0;fillColor=none;top=0;left=0;bottom=0;right=0;align=left;spacingLeft=6;fontSize=16;" vertex="1" parent="b3HpRe8rUkEuL4BjgY8o-5">
          <mxGeometry x="30" width="146" height="30" as="geometry">
            <mxRectangle width="146" height="30" as="alternateBounds" />
          </mxGeometry>
        </mxCell>
        <mxCell id="b3HpRe8rUkEuL4BjgY8o-8" value="" style="shape=partialRectangle;collapsible=0;dropTarget=0;pointerEvents=0;fillColor=none;points=[[0,0.5],[1,0.5]];portConstraint=eastwest;top=0;left=0;right=0;bottom=0;fontSize=16;" vertex="1" parent="b3HpRe8rUkEuL4BjgY8o-1">
          <mxGeometry y="90" width="176" height="30" as="geometry" />
        </mxCell>
        <mxCell id="b3HpRe8rUkEuL4BjgY8o-9" value="" style="shape=partialRectangle;overflow=hidden;connectable=0;fillColor=none;top=0;left=0;bottom=0;right=0;fontSize=16;" vertex="1" parent="b3HpRe8rUkEuL4BjgY8o-8">
          <mxGeometry width="30" height="30" as="geometry">
            <mxRectangle width="30" height="30" as="alternateBounds" />
          </mxGeometry>
        </mxCell>
        <mxCell id="b3HpRe8rUkEuL4BjgY8o-10" value="Descricao" style="shape=partialRectangle;overflow=hidden;connectable=0;fillColor=none;top=0;left=0;bottom=0;right=0;align=left;spacingLeft=6;fontSize=16;" vertex="1" parent="b3HpRe8rUkEuL4BjgY8o-8">
          <mxGeometry x="30" width="146" height="30" as="geometry">
            <mxRectangle width="146" height="30" as="alternateBounds" />
          </mxGeometry>
        </mxCell>
        <mxCell id="b3HpRe8rUkEuL4BjgY8o-11" value="" style="shape=partialRectangle;collapsible=0;dropTarget=0;pointerEvents=0;fillColor=none;points=[[0,0.5],[1,0.5]];portConstraint=eastwest;top=0;left=0;right=0;bottom=0;fontSize=16;" vertex="1" parent="b3HpRe8rUkEuL4BjgY8o-1">
          <mxGeometry y="120" width="176" height="30" as="geometry" />
        </mxCell>
        <mxCell id="b3HpRe8rUkEuL4BjgY8o-12" value="" style="shape=partialRectangle;overflow=hidden;connectable=0;fillColor=none;top=0;left=0;bottom=0;right=0;fontSize=16;" vertex="1" parent="b3HpRe8rUkEuL4BjgY8o-11">
          <mxGeometry width="30" height="30" as="geometry">
            <mxRectangle width="30" height="30" as="alternateBounds" />
          </mxGeometry>
        </mxCell>
        <mxCell id="b3HpRe8rUkEuL4BjgY8o-13" value="CentralIP" style="shape=partialRectangle;overflow=hidden;connectable=0;fillColor=none;top=0;left=0;bottom=0;right=0;align=left;spacingLeft=6;fontSize=16;" vertex="1" parent="b3HpRe8rUkEuL4BjgY8o-11">
          <mxGeometry x="30" width="146" height="30" as="geometry">
            <mxRectangle width="146" height="30" as="alternateBounds" />
          </mxGeometry>
        </mxCell>
        <mxCell id="b3HpRe8rUkEuL4BjgY8o-14" value="" style="shape=partialRectangle;collapsible=0;dropTarget=0;pointerEvents=0;fillColor=none;points=[[0,0.5],[1,0.5]];portConstraint=eastwest;top=0;left=0;right=0;bottom=0;fontSize=16;" vertex="1" parent="b3HpRe8rUkEuL4BjgY8o-1">
          <mxGeometry y="150" width="176" height="30" as="geometry" />
        </mxCell>
        <mxCell id="b3HpRe8rUkEuL4BjgY8o-15" value="" style="shape=partialRectangle;overflow=hidden;connectable=0;fillColor=none;top=0;left=0;bottom=0;right=0;fontSize=16;" vertex="1" parent="b3HpRe8rUkEuL4BjgY8o-14">
          <mxGeometry width="30" height="30" as="geometry">
            <mxRectangle width="30" height="30" as="alternateBounds" />
          </mxGeometry>
        </mxCell>
        <mxCell id="b3HpRe8rUkEuL4BjgY8o-16" value="IPAtribuido" style="shape=partialRectangle;overflow=hidden;connectable=0;fillColor=none;top=0;left=0;bottom=0;right=0;align=left;spacingLeft=6;fontSize=16;" vertex="1" parent="b3HpRe8rUkEuL4BjgY8o-14">
          <mxGeometry x="30" width="146" height="30" as="geometry">
            <mxRectangle width="146" height="30" as="alternateBounds" />
          </mxGeometry>
        </mxCell>
        <mxCell id="b3HpRe8rUkEuL4BjgY8o-17" value="SENSORES" style="shape=table;startSize=30;container=1;collapsible=1;childLayout=tableLayout;fixedRows=1;rowLines=0;fontStyle=1;align=center;resizeLast=1;fillColor=#dae8fc;strokeColor=#6c8ebf;fontSize=16;verticalAlign=top;" vertex="1" parent="1">
          <mxGeometry x="-1600" y="-880" width="203" height="330" as="geometry">
            <mxRectangle x="520" y="20" width="70" height="30" as="alternateBounds" />
          </mxGeometry>
        </mxCell>
        <mxCell id="b3HpRe8rUkEuL4BjgY8o-18" value="" style="shape=partialRectangle;collapsible=0;dropTarget=0;pointerEvents=0;fillColor=none;points=[[0,0.5],[1,0.5]];portConstraint=eastwest;top=0;left=0;right=0;bottom=1;fontSize=16;" vertex="1" parent="b3HpRe8rUkEuL4BjgY8o-17">
          <mxGeometry y="30" width="203" height="30" as="geometry" />
        </mxCell>
        <mxCell id="b3HpRe8rUkEuL4BjgY8o-19" value="PK" style="shape=partialRectangle;overflow=hidden;connectable=0;fillColor=none;top=0;left=0;bottom=0;right=0;fontStyle=1;fontSize=16;" vertex="1" parent="b3HpRe8rUkEuL4BjgY8o-18">
          <mxGeometry width="30" height="30" as="geometry">
            <mxRectangle width="30" height="30" as="alternateBounds" />
          </mxGeometry>
        </mxCell>
        <mxCell id="b3HpRe8rUkEuL4BjgY8o-20" value="SensorID" style="shape=partialRectangle;overflow=hidden;connectable=0;fillColor=none;top=0;left=0;bottom=0;right=0;align=left;spacingLeft=6;fontStyle=5;fontSize=16;" vertex="1" parent="b3HpRe8rUkEuL4BjgY8o-18">
          <mxGeometry x="30" width="173" height="30" as="geometry">
            <mxRectangle width="173" height="30" as="alternateBounds" />
          </mxGeometry>
        </mxCell>
        <mxCell id="b3HpRe8rUkEuL4BjgY8o-21" value="" style="shape=partialRectangle;collapsible=0;dropTarget=0;pointerEvents=0;fillColor=none;points=[[0,0.5],[1,0.5]];portConstraint=eastwest;top=0;left=0;right=0;bottom=0;fontSize=16;" vertex="1" parent="b3HpRe8rUkEuL4BjgY8o-17">
          <mxGeometry y="60" width="203" height="30" as="geometry" />
        </mxCell>
        <mxCell id="b3HpRe8rUkEuL4BjgY8o-22" value="FK" style="shape=partialRectangle;overflow=hidden;connectable=0;fillColor=none;top=0;left=0;bottom=0;right=0;fontSize=16;" vertex="1" parent="b3HpRe8rUkEuL4BjgY8o-21">
          <mxGeometry width="30" height="30" as="geometry">
            <mxRectangle width="30" height="30" as="alternateBounds" />
          </mxGeometry>
        </mxCell>
        <mxCell id="b3HpRe8rUkEuL4BjgY8o-23" value="MacAddress" style="shape=partialRectangle;overflow=hidden;connectable=0;fillColor=none;top=0;left=0;bottom=0;right=0;align=left;spacingLeft=6;fontSize=16;" vertex="1" parent="b3HpRe8rUkEuL4BjgY8o-21">
          <mxGeometry x="30" width="173" height="30" as="geometry">
            <mxRectangle width="173" height="30" as="alternateBounds" />
          </mxGeometry>
        </mxCell>
        <mxCell id="b3HpRe8rUkEuL4BjgY8o-24" value="" style="shape=partialRectangle;collapsible=0;dropTarget=0;pointerEvents=0;fillColor=none;points=[[0,0.5],[1,0.5]];portConstraint=eastwest;top=0;left=0;right=0;bottom=0;fontSize=16;" vertex="1" parent="b3HpRe8rUkEuL4BjgY8o-17">
          <mxGeometry y="90" width="203" height="30" as="geometry" />
        </mxCell>
        <mxCell id="b3HpRe8rUkEuL4BjgY8o-25" value="" style="shape=partialRectangle;overflow=hidden;connectable=0;fillColor=none;top=0;left=0;bottom=0;right=0;fontSize=16;" vertex="1" parent="b3HpRe8rUkEuL4BjgY8o-24">
          <mxGeometry width="30" height="30" as="geometry">
            <mxRectangle width="30" height="30" as="alternateBounds" />
          </mxGeometry>
        </mxCell>
        <mxCell id="b3HpRe8rUkEuL4BjgY8o-26" value="Nome" style="shape=partialRectangle;overflow=hidden;connectable=0;fillColor=none;top=0;left=0;bottom=0;right=0;align=left;spacingLeft=6;fontSize=16;" vertex="1" parent="b3HpRe8rUkEuL4BjgY8o-24">
          <mxGeometry x="30" width="173" height="30" as="geometry">
            <mxRectangle width="173" height="30" as="alternateBounds" />
          </mxGeometry>
        </mxCell>
        <mxCell id="b3HpRe8rUkEuL4BjgY8o-27" value="" style="shape=partialRectangle;collapsible=0;dropTarget=0;pointerEvents=0;fillColor=none;points=[[0,0.5],[1,0.5]];portConstraint=eastwest;top=0;left=0;right=0;bottom=0;fontSize=16;" vertex="1" parent="b3HpRe8rUkEuL4BjgY8o-17">
          <mxGeometry y="120" width="203" height="30" as="geometry" />
        </mxCell>
        <mxCell id="b3HpRe8rUkEuL4BjgY8o-28" value="" style="shape=partialRectangle;overflow=hidden;connectable=0;fillColor=none;top=0;left=0;bottom=0;right=0;fontSize=16;" vertex="1" parent="b3HpRe8rUkEuL4BjgY8o-27">
          <mxGeometry width="30" height="30" as="geometry">
            <mxRectangle width="30" height="30" as="alternateBounds" />
          </mxGeometry>
        </mxCell>
        <mxCell id="b3HpRe8rUkEuL4BjgY8o-29" value="Tipo" style="shape=partialRectangle;overflow=hidden;connectable=0;fillColor=none;top=0;left=0;bottom=0;right=0;align=left;spacingLeft=6;fontSize=16;" vertex="1" parent="b3HpRe8rUkEuL4BjgY8o-27">
          <mxGeometry x="30" width="173" height="30" as="geometry">
            <mxRectangle width="173" height="30" as="alternateBounds" />
          </mxGeometry>
        </mxCell>
        <mxCell id="b3HpRe8rUkEuL4BjgY8o-30" value="" style="shape=partialRectangle;collapsible=0;dropTarget=0;pointerEvents=0;fillColor=none;points=[[0,0.5],[1,0.5]];portConstraint=eastwest;top=0;left=0;right=0;bottom=0;fontSize=16;" vertex="1" parent="b3HpRe8rUkEuL4BjgY8o-17">
          <mxGeometry y="150" width="203" height="30" as="geometry" />
        </mxCell>
        <mxCell id="b3HpRe8rUkEuL4BjgY8o-31" value="" style="shape=partialRectangle;overflow=hidden;connectable=0;fillColor=none;top=0;left=0;bottom=0;right=0;fontSize=16;" vertex="1" parent="b3HpRe8rUkEuL4BjgY8o-30">
          <mxGeometry width="30" height="30" as="geometry">
            <mxRectangle width="30" height="30" as="alternateBounds" />
          </mxGeometry>
        </mxCell>
        <mxCell id="b3HpRe8rUkEuL4BjgY8o-32" value="Pin" style="shape=partialRectangle;overflow=hidden;connectable=0;fillColor=none;top=0;left=0;bottom=0;right=0;align=left;spacingLeft=6;fontSize=16;" vertex="1" parent="b3HpRe8rUkEuL4BjgY8o-30">
          <mxGeometry x="30" width="173" height="30" as="geometry">
            <mxRectangle width="173" height="30" as="alternateBounds" />
          </mxGeometry>
        </mxCell>
        <mxCell id="b3HpRe8rUkEuL4BjgY8o-33" value="" style="shape=partialRectangle;collapsible=0;dropTarget=0;pointerEvents=0;fillColor=none;points=[[0,0.5],[1,0.5]];portConstraint=eastwest;top=0;left=0;right=0;bottom=0;fontSize=16;" vertex="1" parent="b3HpRe8rUkEuL4BjgY8o-17">
          <mxGeometry y="180" width="203" height="30" as="geometry" />
        </mxCell>
        <mxCell id="b3HpRe8rUkEuL4BjgY8o-34" value="" style="shape=partialRectangle;overflow=hidden;connectable=0;fillColor=none;top=0;left=0;bottom=0;right=0;fontSize=16;" vertex="1" parent="b3HpRe8rUkEuL4BjgY8o-33">
          <mxGeometry width="30" height="30" as="geometry">
            <mxRectangle width="30" height="30" as="alternateBounds" />
          </mxGeometry>
        </mxCell>
        <mxCell id="b3HpRe8rUkEuL4BjgY8o-35" value="ModoOperacao" style="shape=partialRectangle;overflow=hidden;connectable=0;fillColor=none;top=0;left=0;bottom=0;right=0;align=left;spacingLeft=6;fontSize=16;" vertex="1" parent="b3HpRe8rUkEuL4BjgY8o-33">
          <mxGeometry x="30" width="173" height="30" as="geometry">
            <mxRectangle width="173" height="30" as="alternateBounds" />
          </mxGeometry>
        </mxCell>
        <mxCell id="b3HpRe8rUkEuL4BjgY8o-36" value="" style="shape=partialRectangle;collapsible=0;dropTarget=0;pointerEvents=0;fillColor=none;points=[[0,0.5],[1,0.5]];portConstraint=eastwest;top=0;left=0;right=0;bottom=0;fontSize=16;" vertex="1" parent="b3HpRe8rUkEuL4BjgY8o-17">
          <mxGeometry y="210" width="203" height="30" as="geometry" />
        </mxCell>
        <mxCell id="b3HpRe8rUkEuL4BjgY8o-37" value="" style="shape=partialRectangle;overflow=hidden;connectable=0;fillColor=none;top=0;left=0;bottom=0;right=0;fontSize=16;" vertex="1" parent="b3HpRe8rUkEuL4BjgY8o-36">
          <mxGeometry width="30" height="30" as="geometry">
            <mxRectangle width="30" height="30" as="alternateBounds" />
          </mxGeometry>
        </mxCell>
        <mxCell id="b3HpRe8rUkEuL4BjgY8o-38" value="ValorÂ Â Â Â " style="shape=partialRectangle;overflow=hidden;connectable=0;fillColor=none;top=0;left=0;bottom=0;right=0;align=left;spacingLeft=6;fontSize=16;" vertex="1" parent="b3HpRe8rUkEuL4BjgY8o-36">
          <mxGeometry x="30" width="173" height="30" as="geometry">
            <mxRectangle width="173" height="30" as="alternateBounds" />
          </mxGeometry>
        </mxCell>
        <mxCell id="b3HpRe8rUkEuL4BjgY8o-39" value="" style="shape=partialRectangle;collapsible=0;dropTarget=0;pointerEvents=0;fillColor=none;points=[[0,0.5],[1,0.5]];portConstraint=eastwest;top=0;left=0;right=0;bottom=0;fontSize=16;" vertex="1" parent="b3HpRe8rUkEuL4BjgY8o-17">
          <mxGeometry y="240" width="203" height="30" as="geometry" />
        </mxCell>
        <mxCell id="b3HpRe8rUkEuL4BjgY8o-40" value="" style="shape=partialRectangle;overflow=hidden;connectable=0;fillColor=none;top=0;left=0;bottom=0;right=0;fontSize=16;" vertex="1" parent="b3HpRe8rUkEuL4BjgY8o-39">
          <mxGeometry width="30" height="30" as="geometry">
            <mxRectangle width="30" height="30" as="alternateBounds" />
          </mxGeometry>
        </mxCell>
        <mxCell id="b3HpRe8rUkEuL4BjgY8o-41" value="DataCriacao" style="shape=partialRectangle;overflow=hidden;connectable=0;fillColor=none;top=0;left=0;bottom=0;right=0;align=left;spacingLeft=6;fontSize=16;" vertex="1" parent="b3HpRe8rUkEuL4BjgY8o-39">
          <mxGeometry x="30" width="173" height="30" as="geometry">
            <mxRectangle width="173" height="30" as="alternateBounds" />
          </mxGeometry>
        </mxCell>
        <mxCell id="b3HpRe8rUkEuL4BjgY8o-42" value="" style="shape=partialRectangle;collapsible=0;dropTarget=0;pointerEvents=0;fillColor=none;points=[[0,0.5],[1,0.5]];portConstraint=eastwest;top=0;left=0;right=0;bottom=0;fontSize=16;" vertex="1" parent="b3HpRe8rUkEuL4BjgY8o-17">
          <mxGeometry y="270" width="203" height="30" as="geometry" />
        </mxCell>
        <mxCell id="b3HpRe8rUkEuL4BjgY8o-43" value="" style="shape=partialRectangle;overflow=hidden;connectable=0;fillColor=none;top=0;left=0;bottom=0;right=0;fontSize=16;" vertex="1" parent="b3HpRe8rUkEuL4BjgY8o-42">
          <mxGeometry width="30" height="30" as="geometry">
            <mxRectangle width="30" height="30" as="alternateBounds" />
          </mxGeometry>
        </mxCell>
        <mxCell id="b3HpRe8rUkEuL4BjgY8o-44" value="Unidade" style="shape=partialRectangle;overflow=hidden;connectable=0;fillColor=none;top=0;left=0;bottom=0;right=0;align=left;spacingLeft=6;fontSize=16;" vertex="1" parent="b3HpRe8rUkEuL4BjgY8o-42">
          <mxGeometry x="30" width="173" height="30" as="geometry">
            <mxRectangle width="173" height="30" as="alternateBounds" />
          </mxGeometry>
        </mxCell>
        <mxCell id="b3HpRe8rUkEuL4BjgY8o-45" value="" style="shape=partialRectangle;collapsible=0;dropTarget=0;pointerEvents=0;fillColor=none;points=[[0,0.5],[1,0.5]];portConstraint=eastwest;top=0;left=0;right=0;bottom=0;fontSize=16;" vertex="1" parent="b3HpRe8rUkEuL4BjgY8o-17">
          <mxGeometry y="300" width="203" height="30" as="geometry" />
        </mxCell>
        <mxCell id="b3HpRe8rUkEuL4BjgY8o-46" value="" style="shape=partialRectangle;overflow=hidden;connectable=0;fillColor=none;top=0;left=0;bottom=0;right=0;fontSize=16;" vertex="1" parent="b3HpRe8rUkEuL4BjgY8o-45">
          <mxGeometry width="30" height="30" as="geometry">
            <mxRectangle width="30" height="30" as="alternateBounds" />
          </mxGeometry>
        </mxCell>
        <mxCell id="b3HpRe8rUkEuL4BjgY8o-47" value="isDeleted" style="shape=partialRectangle;overflow=hidden;connectable=0;fillColor=none;top=0;left=0;bottom=0;right=0;align=left;spacingLeft=6;fontSize=16;" vertex="1" parent="b3HpRe8rUkEuL4BjgY8o-45">
          <mxGeometry x="30" width="173" height="30" as="geometry">
            <mxRectangle width="173" height="30" as="alternateBounds" />
          </mxGeometry>
        </mxCell>
        <mxCell id="b3HpRe8rUkEuL4BjgY8o-48" value="ATUADORES" style="shape=table;startSize=30;container=1;collapsible=1;childLayout=tableLayout;fixedRows=1;rowLines=0;fontStyle=1;align=center;resizeLast=1;fillColor=#dae8fc;strokeColor=#6c8ebf;fontSize=16;verticalAlign=top;" vertex="1" parent="1">
          <mxGeometry x="-1080" y="-880" width="203" height="330" as="geometry">
            <mxRectangle x="520" y="20" width="70" height="30" as="alternateBounds" />
          </mxGeometry>
        </mxCell>
        <mxCell id="b3HpRe8rUkEuL4BjgY8o-49" value="" style="shape=partialRectangle;collapsible=0;dropTarget=0;pointerEvents=0;fillColor=none;points=[[0,0.5],[1,0.5]];portConstraint=eastwest;top=0;left=0;right=0;bottom=1;fontSize=16;" vertex="1" parent="b3HpRe8rUkEuL4BjgY8o-48">
          <mxGeometry y="30" width="203" height="30" as="geometry" />
        </mxCell>
        <mxCell id="b3HpRe8rUkEuL4BjgY8o-50" value="PK" style="shape=partialRectangle;overflow=hidden;connectable=0;fillColor=none;top=0;left=0;bottom=0;right=0;fontStyle=1;fontSize=16;" vertex="1" parent="b3HpRe8rUkEuL4BjgY8o-49">
          <mxGeometry width="30" height="30" as="geometry">
            <mxRectangle width="30" height="30" as="alternateBounds" />
          </mxGeometry>
        </mxCell>
        <mxCell id="b3HpRe8rUkEuL4BjgY8o-51" value="ActuatorID" style="shape=partialRectangle;overflow=hidden;connectable=0;fillColor=none;top=0;left=0;bottom=0;right=0;align=left;spacingLeft=6;fontStyle=5;fontSize=16;" vertex="1" parent="b3HpRe8rUkEuL4BjgY8o-49">
          <mxGeometry x="30" width="173" height="30" as="geometry">
            <mxRectangle width="173" height="30" as="alternateBounds" />
          </mxGeometry>
        </mxCell>
        <mxCell id="b3HpRe8rUkEuL4BjgY8o-52" value="" style="shape=partialRectangle;collapsible=0;dropTarget=0;pointerEvents=0;fillColor=none;points=[[0,0.5],[1,0.5]];portConstraint=eastwest;top=0;left=0;right=0;bottom=0;fontSize=16;" vertex="1" parent="b3HpRe8rUkEuL4BjgY8o-48">
          <mxGeometry y="60" width="203" height="30" as="geometry" />
        </mxCell>
        <mxCell id="b3HpRe8rUkEuL4BjgY8o-53" value="FK" style="shape=partialRectangle;overflow=hidden;connectable=0;fillColor=none;top=0;left=0;bottom=0;right=0;fontSize=16;" vertex="1" parent="b3HpRe8rUkEuL4BjgY8o-52">
          <mxGeometry width="30" height="30" as="geometry">
            <mxRectangle width="30" height="30" as="alternateBounds" />
          </mxGeometry>
        </mxCell>
        <mxCell id="b3HpRe8rUkEuL4BjgY8o-54" value="MacAddress" style="shape=partialRectangle;overflow=hidden;connectable=0;fillColor=none;top=0;left=0;bottom=0;right=0;align=left;spacingLeft=6;fontSize=16;" vertex="1" parent="b3HpRe8rUkEuL4BjgY8o-52">
          <mxGeometry x="30" width="173" height="30" as="geometry">
            <mxRectangle width="173" height="30" as="alternateBounds" />
          </mxGeometry>
        </mxCell>
        <mxCell id="b3HpRe8rUkEuL4BjgY8o-55" value="" style="shape=partialRectangle;collapsible=0;dropTarget=0;pointerEvents=0;fillColor=none;points=[[0,0.5],[1,0.5]];portConstraint=eastwest;top=0;left=0;right=0;bottom=0;fontSize=16;" vertex="1" parent="b3HpRe8rUkEuL4BjgY8o-48">
          <mxGeometry y="90" width="203" height="30" as="geometry" />
        </mxCell>
        <mxCell id="b3HpRe8rUkEuL4BjgY8o-56" value="" style="shape=partialRectangle;overflow=hidden;connectable=0;fillColor=none;top=0;left=0;bottom=0;right=0;fontSize=16;" vertex="1" parent="b3HpRe8rUkEuL4BjgY8o-55">
          <mxGeometry width="30" height="30" as="geometry">
            <mxRectangle width="30" height="30" as="alternateBounds" />
          </mxGeometry>
        </mxCell>
        <mxCell id="b3HpRe8rUkEuL4BjgY8o-57" value="Nome" style="shape=partialRectangle;overflow=hidden;connectable=0;fillColor=none;top=0;left=0;bottom=0;right=0;align=left;spacingLeft=6;fontSize=16;" vertex="1" parent="b3HpRe8rUkEuL4BjgY8o-55">
          <mxGeometry x="30" width="173" height="30" as="geometry">
            <mxRectangle width="173" height="30" as="alternateBounds" />
          </mxGeometry>
        </mxCell>
        <mxCell id="b3HpRe8rUkEuL4BjgY8o-58" value="" style="shape=partialRectangle;collapsible=0;dropTarget=0;pointerEvents=0;fillColor=none;points=[[0,0.5],[1,0.5]];portConstraint=eastwest;top=0;left=0;right=0;bottom=0;fontSize=16;" vertex="1" parent="b3HpRe8rUkEuL4BjgY8o-48">
          <mxGeometry y="120" width="203" height="30" as="geometry" />
        </mxCell>
        <mxCell id="b3HpRe8rUkEuL4BjgY8o-59" value="" style="shape=partialRectangle;overflow=hidden;connectable=0;fillColor=none;top=0;left=0;bottom=0;right=0;fontSize=16;" vertex="1" parent="b3HpRe8rUkEuL4BjgY8o-58">
          <mxGeometry width="30" height="30" as="geometry">
            <mxRectangle width="30" height="30" as="alternateBounds" />
          </mxGeometry>
        </mxCell>
        <mxCell id="b3HpRe8rUkEuL4BjgY8o-60" value="Tipo" style="shape=partialRectangle;overflow=hidden;connectable=0;fillColor=none;top=0;left=0;bottom=0;right=0;align=left;spacingLeft=6;fontSize=16;" vertex="1" parent="b3HpRe8rUkEuL4BjgY8o-58">
          <mxGeometry x="30" width="173" height="30" as="geometry">
            <mxRectangle width="173" height="30" as="alternateBounds" />
          </mxGeometry>
        </mxCell>
        <mxCell id="b3HpRe8rUkEuL4BjgY8o-61" value="" style="shape=partialRectangle;collapsible=0;dropTarget=0;pointerEvents=0;fillColor=none;points=[[0,0.5],[1,0.5]];portConstraint=eastwest;top=0;left=0;right=0;bottom=0;fontSize=16;" vertex="1" parent="b3HpRe8rUkEuL4BjgY8o-48">
          <mxGeometry y="150" width="203" height="30" as="geometry" />
        </mxCell>
        <mxCell id="b3HpRe8rUkEuL4BjgY8o-62" value="" style="shape=partialRectangle;overflow=hidden;connectable=0;fillColor=none;top=0;left=0;bottom=0;right=0;fontSize=16;" vertex="1" parent="b3HpRe8rUkEuL4BjgY8o-61">
          <mxGeometry width="30" height="30" as="geometry">
            <mxRectangle width="30" height="30" as="alternateBounds" />
          </mxGeometry>
        </mxCell>
        <mxCell id="b3HpRe8rUkEuL4BjgY8o-63" value="Pin" style="shape=partialRectangle;overflow=hidden;connectable=0;fillColor=none;top=0;left=0;bottom=0;right=0;align=left;spacingLeft=6;fontSize=16;" vertex="1" parent="b3HpRe8rUkEuL4BjgY8o-61">
          <mxGeometry x="30" width="173" height="30" as="geometry">
            <mxRectangle width="173" height="30" as="alternateBounds" />
          </mxGeometry>
        </mxCell>
        <mxCell id="b3HpRe8rUkEuL4BjgY8o-64" value="" style="shape=partialRectangle;collapsible=0;dropTarget=0;pointerEvents=0;fillColor=none;points=[[0,0.5],[1,0.5]];portConstraint=eastwest;top=0;left=0;right=0;bottom=0;fontSize=16;" vertex="1" parent="b3HpRe8rUkEuL4BjgY8o-48">
          <mxGeometry y="180" width="203" height="30" as="geometry" />
        </mxCell>
        <mxCell id="b3HpRe8rUkEuL4BjgY8o-65" value="" style="shape=partialRectangle;overflow=hidden;connectable=0;fillColor=none;top=0;left=0;bottom=0;right=0;fontSize=16;" vertex="1" parent="b3HpRe8rUkEuL4BjgY8o-64">
          <mxGeometry width="30" height="30" as="geometry">
            <mxRectangle width="30" height="30" as="alternateBounds" />
          </mxGeometry>
        </mxCell>
        <mxCell id="b3HpRe8rUkEuL4BjgY8o-66" value="ModoOperacao" style="shape=partialRectangle;overflow=hidden;connectable=0;fillColor=none;top=0;left=0;bottom=0;right=0;align=left;spacingLeft=6;fontSize=16;" vertex="1" parent="b3HpRe8rUkEuL4BjgY8o-64">
          <mxGeometry x="30" width="173" height="30" as="geometry">
            <mxRectangle width="173" height="30" as="alternateBounds" />
          </mxGeometry>
        </mxCell>
        <mxCell id="b3HpRe8rUkEuL4BjgY8o-67" value="" style="shape=partialRectangle;collapsible=0;dropTarget=0;pointerEvents=0;fillColor=none;points=[[0,0.5],[1,0.5]];portConstraint=eastwest;top=0;left=0;right=0;bottom=0;fontSize=16;" vertex="1" parent="b3HpRe8rUkEuL4BjgY8o-48">
          <mxGeometry y="210" width="203" height="30" as="geometry" />
        </mxCell>
        <mxCell id="b3HpRe8rUkEuL4BjgY8o-68" value="" style="shape=partialRectangle;overflow=hidden;connectable=0;fillColor=none;top=0;left=0;bottom=0;right=0;fontSize=16;" vertex="1" parent="b3HpRe8rUkEuL4BjgY8o-67">
          <mxGeometry width="30" height="30" as="geometry">
            <mxRectangle width="30" height="30" as="alternateBounds" />
          </mxGeometry>
        </mxCell>
        <mxCell id="b3HpRe8rUkEuL4BjgY8o-69" value="ValorÂ Â Â Â " style="shape=partialRectangle;overflow=hidden;connectable=0;fillColor=none;top=0;left=0;bottom=0;right=0;align=left;spacingLeft=6;fontSize=16;" vertex="1" parent="b3HpRe8rUkEuL4BjgY8o-67">
          <mxGeometry x="30" width="173" height="30" as="geometry">
            <mxRectangle width="173" height="30" as="alternateBounds" />
          </mxGeometry>
        </mxCell>
        <mxCell id="b3HpRe8rUkEuL4BjgY8o-70" value="" style="shape=partialRectangle;collapsible=0;dropTarget=0;pointerEvents=0;fillColor=none;points=[[0,0.5],[1,0.5]];portConstraint=eastwest;top=0;left=0;right=0;bottom=0;fontSize=16;" vertex="1" parent="b3HpRe8rUkEuL4BjgY8o-48">
          <mxGeometry y="240" width="203" height="30" as="geometry" />
        </mxCell>
        <mxCell id="b3HpRe8rUkEuL4BjgY8o-71" value="" style="shape=partialRectangle;overflow=hidden;connectable=0;fillColor=none;top=0;left=0;bottom=0;right=0;fontSize=16;" vertex="1" parent="b3HpRe8rUkEuL4BjgY8o-70">
          <mxGeometry width="30" height="30" as="geometry">
            <mxRectangle width="30" height="30" as="alternateBounds" />
          </mxGeometry>
        </mxCell>
        <mxCell id="b3HpRe8rUkEuL4BjgY8o-72" value="DataCriacao" style="shape=partialRectangle;overflow=hidden;connectable=0;fillColor=none;top=0;left=0;bottom=0;right=0;align=left;spacingLeft=6;fontSize=16;" vertex="1" parent="b3HpRe8rUkEuL4BjgY8o-70">
          <mxGeometry x="30" width="173" height="30" as="geometry">
            <mxRectangle width="173" height="30" as="alternateBounds" />
          </mxGeometry>
        </mxCell>
        <mxCell id="b3HpRe8rUkEuL4BjgY8o-73" value="" style="shape=partialRectangle;collapsible=0;dropTarget=0;pointerEvents=0;fillColor=none;points=[[0,0.5],[1,0.5]];portConstraint=eastwest;top=0;left=0;right=0;bottom=0;fontSize=16;" vertex="1" parent="b3HpRe8rUkEuL4BjgY8o-48">
          <mxGeometry y="270" width="203" height="30" as="geometry" />
        </mxCell>
        <mxCell id="b3HpRe8rUkEuL4BjgY8o-74" value="" style="shape=partialRectangle;overflow=hidden;connectable=0;fillColor=none;top=0;left=0;bottom=0;right=0;fontSize=16;" vertex="1" parent="b3HpRe8rUkEuL4BjgY8o-73">
          <mxGeometry width="30" height="30" as="geometry">
            <mxRectangle width="30" height="30" as="alternateBounds" />
          </mxGeometry>
        </mxCell>
        <mxCell id="b3HpRe8rUkEuL4BjgY8o-75" value="Unidade" style="shape=partialRectangle;overflow=hidden;connectable=0;fillColor=none;top=0;left=0;bottom=0;right=0;align=left;spacingLeft=6;fontSize=16;" vertex="1" parent="b3HpRe8rUkEuL4BjgY8o-73">
          <mxGeometry x="30" width="173" height="30" as="geometry">
            <mxRectangle width="173" height="30" as="alternateBounds" />
          </mxGeometry>
        </mxCell>
        <mxCell id="b3HpRe8rUkEuL4BjgY8o-76" value="" style="shape=partialRectangle;collapsible=0;dropTarget=0;pointerEvents=0;fillColor=none;points=[[0,0.5],[1,0.5]];portConstraint=eastwest;top=0;left=0;right=0;bottom=0;fontSize=16;" vertex="1" parent="b3HpRe8rUkEuL4BjgY8o-48">
          <mxGeometry y="300" width="203" height="30" as="geometry" />
        </mxCell>
        <mxCell id="b3HpRe8rUkEuL4BjgY8o-77" value="" style="shape=partialRectangle;overflow=hidden;connectable=0;fillColor=none;top=0;left=0;bottom=0;right=0;fontSize=16;" vertex="1" parent="b3HpRe8rUkEuL4BjgY8o-76">
          <mxGeometry width="30" height="30" as="geometry">
            <mxRectangle width="30" height="30" as="alternateBounds" />
          </mxGeometry>
        </mxCell>
        <mxCell id="b3HpRe8rUkEuL4BjgY8o-78" value="isDeleted" style="shape=partialRectangle;overflow=hidden;connectable=0;fillColor=none;top=0;left=0;bottom=0;right=0;align=left;spacingLeft=6;fontSize=16;" vertex="1" parent="b3HpRe8rUkEuL4BjgY8o-76">
          <mxGeometry x="30" width="173" height="30" as="geometry">
            <mxRectangle width="173" height="30" as="alternateBounds" />
          </mxGeometry>
        </mxCell>
        <mxCell id="b3HpRe8rUkEuL4BjgY8o-79" style="edgeStyle=orthogonalEdgeStyle;rounded=0;orthogonalLoop=1;jettySize=auto;html=1;entryX=1;entryY=0.5;entryDx=0;entryDy=0;endArrow=ERzeroToMany;endFill=0;startArrow=ERmandOne;startFill=0;" edge="1" parent="1" source="b3HpRe8rUkEuL4BjgY8o-2" target="b3HpRe8rUkEuL4BjgY8o-21">
          <mxGeometry relative="1" as="geometry" />
        </mxCell>
        <mxCell id="b3HpRe8rUkEuL4BjgY8o-80" style="edgeStyle=orthogonalEdgeStyle;rounded=0;orthogonalLoop=1;jettySize=auto;html=1;exitX=1;exitY=0.5;exitDx=0;exitDy=0;entryX=0;entryY=0.5;entryDx=0;entryDy=0;startArrow=ERmandOne;startFill=0;endArrow=ERzeroToMany;endFill=0;" edge="1" parent="1" source="b3HpRe8rUkEuL4BjgY8o-2" target="b3HpRe8rUkEuL4BjgY8o-52">
          <mxGeometry relative="1" as="geometry" />
        </mxCell>
      </root>
    </mxGraphModel>
  </diagram>
</mxfile>
